<svg xmlns="http://www.w3.org/2000/svg" width="645" height="506" fill="none"><g fill="#F49F20" opacity=".7"><path d="M234.047 498.552c154.712 26.662 234.549-26.709 234.955-28.295 4.331-2.547 8.702-5.063 12.802-7.953 6.524-4.598 12.881-9.437 19.222-14.286 3.125-2.391 6.179-4.904 9.036-7.605 2.052-1.941 3.567-4.445 5.595-6.416 4.656-4.527 9.663-8.704 14.195-13.346a1004.876 1004.876 0 0 0 23.994-25.42c6.337-6.959 12.441-14.137 18.473-21.365 4.192-5.023 8.092-10.289 12.111-15.456 3.346-4.301 6.976-8.42 9.934-12.973 3.497-5.384 6.555-11.07 9.53-16.767 3.061-5.865 6.056-11.792 8.602-17.891 3.047-7.301 7.127-14.246 7.453-22.545.264-6.735 1.43-13.431 1.82-20.166.459-7.917-.486-15.775-1.899-23.569-1.221-6.729-2.967-13.345-6.282-19.334a235.209 235.209 0 0 0-11.35-18.459c-4.877-7.164-10.703-13.486-17.802-18.644-6.626-4.815-13.845-8.43-21.374-11.472-7.04-2.845-14.206-5.376-21.273-8.155-4.055-1.594-7.998-3.471-12.038-5.108-6.548-2.654-13.201-5.059-19.687-7.853-10.113-4.356-19.069-10.36-26.449-18.695-4.806-5.428-10.028-10.491-15.121-15.661-5.012-5.087-10.145-10.057-15.128-15.172-2.091-2.147-3.762-4.717-5.931-6.772-3.208-3.038-6.649-5.838-10.065-8.648-3.378-2.78-6.564-5.956-10.337-8.057-8.344-4.646-16.625-9.467-25.938-12.188-8.087-2.362-15.963-5.229-24.384-6.62-8.698-1.436-17.332-2.766-26.153-2.755-11.309.013-22.619-.029-33.928.025-2.781.013-5.597.074-8.334.51a697.088 697.088 0 0 0-22.06 3.882c-5.852 1.124-11.668 2.442-17.484 3.742l-.205.046c-4.24.948-8.485 1.896-12.674 3.038-7.299 1.99-14.568 4.09-21.826 6.223-9.914 2.915-18.717 8.62-28.772 11.288-5.352 1.421-10.506 3.669-15.643 5.8-8.817 3.656-17.577 7.454-26.307 11.313-4.06 1.795-7.867 4.22-12.013 5.753-8.356 3.089-16.154 7.214-23.536 12.086-6.055 3.996-11.712 8.587-17.711 12.672-8.383 5.71-16.35 11.871-22.702 19.847-4.55 5.711-9.33 11.313-13.203 17.469-5.47 8.699-10.48 17.719-15.16 26.87-4.373 8.556-8.151 17.422-12.014 26.229-2.532 5.775-5.055 11.587-7.028 17.564-2.298 6.961-3.803 14.181-6.008 21.176-1.763 5.594-2.413 11.26-2.35 17.054.017 1.56.428 3.115.447 4.675.195 15.21.302 30.422.548 45.632.044 2.714.527 5.433.955 8.126a594.27 594.27 0 0 0 2.433 14.107c.719 3.916 1.214 7.912 2.368 11.703 3.314 10.89 7.578 21.421 13.25 31.321a610.883 610.883 0 0 0 11.586 19.338c1.237 1.985 3.015 3.63 4.515 5.456 3.036 3.697 5.396 6.889 9.117 11.078 43.963 49.502 106.209 54.831 157.228 63.623Z"/><path d="M17.17 359.988c-3.15-7.406-5.621-14.749-6.894-22.519-1.011-6.173-2.67-12.238-3.797-18.395-.606-3.309-.594-6.725-1.05-10.068-.784-5.747-1.713-11.474-2.584-17.21-.43-2.828-.993-5.643-1.275-8.486C.546 272.975-.262 262.626.08 252.223c.18-5.486-.028-11.013.58-16.45.769-6.885 2.245-13.687 3.309-20.542.75-4.835 1.15-9.729 2.01-14.542 1.456-8.153 3.951-15.995 8.163-23.185 1.85-3.16 3.95-6.175 5.961-9.24 1.36-2.07 5.618-3.881 7.45-3.49 2.518.536 3.428 2.387 3.203 4.433-.436 3.959-1.092 7.937-2.143 11.774-2.171 7.934-4.934 15.713-6.928 23.686-1.453 5.815-2.094 11.834-3.043 17.771a2056.179 2056.179 0 0 0-3.406 21.994c-.29 1.945-.411 3.923-.494 5.891-.203 4.807-.319 9.618-.509 14.425-.125 3.185-.57 6.378-.431 9.549.335 7.688.865 15.369 1.437 23.044a305.11 305.11 0 0 0 1.474 14.995c.494 3.976 1.275 7.917 1.92 11.874.657 4.037 1.153 8.108 1.998 12.105.767 3.622 1.804 7.198 2.906 10.738 2.868 9.209 5.774 18.408 8.788 27.571 2.256 6.859 4.72 13.65 7.057 20.483 1.028 3.008.385 4.765-1.934 4.775-1.848.009-3.342-1.165-4.158-2.921-.697-1.497-1.277-3.049-1.968-4.549-3.242-7.03-6.571-14.021-9.73-21.087-1.624-3.631-2.958-7.392-4.422-11.337ZM582.673 107.62c-6.567 1.625-12.848 3.439-19.225 4.813-4.541.978-9.293 2.228-13.8 1.794-5.583-.537-11.506 1.157-16.763-1.769-3.461-1.926-6.844-4.046-10.037-6.385-5.964-4.369-9.889-10.405-13.111-16.936-3.469-7.034-5.658-14.492-7.095-22.165-.545-2.912-1.1-5.926-.915-8.847.279-4.386 1.142-8.742 1.872-13.091.906-5.399 2.817-10.477 5.095-15.44 3.131-6.824 8.746-11.316 14.615-15.502 6.871-4.9 14.377-8.74 22.454-11.13 4.771-1.41 9.831-1.919 14.793-2.594 9.594-1.305 18.887 1.107 27.992 3.35 13.048 3.214 20.523 12.772 24.287 25.134 2.062 6.77 3.09 13.86 4.48 20.825.768 3.852 1.65 7.727 1.871 11.626.18 3.169-.313 6.434-.924 9.576-1.196 6.148-3.815 11.757-7.262 16.973-2.813 4.255-6.842 7.298-10.7 10.49-5.155 4.264-11.239 6.839-17.627 9.278ZM61.751 128.725c-1.993 2.259-3.948 4.33-5.72 6.547-4.382 5.482-8.668 11.041-13.02 16.546-1.273 1.609-3.022 2.624-4.959 1.654-1.922-.963-1.658-3.087-1.553-4.905.244-4.207 2.39-7.714 4.728-10.943 4.907-6.777 10.071-13.393 16.185-19.152 6.391-6.02 13.114-11.633 20.47-16.502 3.959-2.62 7.767-5.402 12.55-6.236 1.056-.185 2.943-.104 3.174.418.457 1.032.488 2.789-.133 3.651-1.352 1.878-3.144 3.47-4.899 5.019-3.062 2.704-6.301 5.21-9.342 7.937-5.832 5.23-11.577 10.557-17.48 15.966Z"/></g></svg>