<svg xmlns="http://www.w3.org/2000/svg" width="620" height="620" fill="none"><path fill="#fff" d="M0 0h620v620H0z"/><g fill="#F49F20" opacity=".7"><path d="M229.684 495.362c133.25 22.999 202.011-23.039 202.36-24.408 3.73-2.196 7.496-4.367 11.027-6.86 5.618-3.966 11.093-8.14 16.554-12.323 2.692-2.062 5.323-4.231 7.783-6.56 1.768-1.675 3.072-3.834 4.819-5.535 4.01-3.905 8.322-7.508 12.226-11.512a867.628 867.628 0 0 0 20.665-21.927c5.458-6.004 10.715-12.196 15.91-18.43 3.611-4.333 6.97-8.876 10.431-13.333 2.882-3.71 6.009-7.263 8.556-11.191 3.012-4.643 5.646-9.548 8.208-14.463 2.637-5.059 5.216-10.172 7.409-15.433 2.624-6.298 6.138-12.288 6.419-19.448.227-5.809 1.231-11.585 1.567-17.394.396-6.829-.418-13.608-1.635-20.331-1.051-5.805-2.556-11.512-5.411-16.678a202.757 202.757 0 0 0-9.775-15.923c-4.201-6.18-9.219-11.633-15.333-16.083-5.707-4.153-11.924-7.272-18.409-9.896-6.063-2.453-12.234-4.637-18.321-7.034-3.492-1.375-6.889-2.994-10.368-4.406-5.639-2.289-11.37-4.364-16.956-6.774-8.71-3.758-16.424-8.937-22.78-16.127-4.139-4.682-8.637-9.049-13.023-13.509-4.317-4.388-8.737-8.675-13.029-13.087-1.802-1.852-3.241-4.069-5.109-5.842-2.762-2.621-5.726-5.036-8.668-7.46-2.91-2.397-5.654-5.138-8.904-6.95-7.186-4.008-14.318-8.166-22.339-10.513-6.965-2.038-13.748-4.511-21.001-5.711-7.491-1.239-14.928-2.386-22.525-2.377-9.74.012-19.481-.024-29.221.022-2.395.012-4.821.064-7.178.44a599.482 599.482 0 0 0-19 3.349c-5.04.969-10.049 2.106-15.058 3.228l-.176.039c-3.652.818-7.308 1.636-10.917 2.621-6.286 1.716-12.547 3.527-18.798 5.368-8.538 2.514-16.12 7.436-24.78 9.738-4.61 1.225-9.049 3.164-13.473 5.002-7.594 3.154-15.138 6.43-22.657 9.759-3.497 1.549-6.776 3.64-10.347 4.962-7.197 2.665-13.912 6.224-20.271 10.426-5.215 3.447-10.087 7.407-15.254 10.931-7.22 4.925-14.081 10.24-19.553 17.12-3.918 4.927-8.036 9.759-11.37 15.07-4.712 7.503-9.027 15.283-13.057 23.178-3.767 7.38-7.02 15.028-10.348 22.625-2.181 4.981-4.354 9.995-6.053 15.151-1.98 6.004-3.275 12.232-5.174 18.266-1.52 4.826-2.078 9.713-2.024 14.711.015 1.346.368 2.687.385 4.033.168 13.12.26 26.242.471 39.362.038 2.341.455 4.687.823 7.01.644 4.065 1.354 8.12 2.096 12.169.619 3.378 1.045 6.825 2.039 10.095 2.855 9.393 6.527 18.478 11.412 27.018a527.78 527.78 0 0 0 9.978 16.681c1.066 1.712 2.597 3.131 3.89 4.707 2.614 3.188 4.647 5.941 7.851 9.555 37.865 42.701 91.475 47.298 135.416 54.882Z"/><path d="M42.894 375.835c-2.713-6.388-4.84-12.722-5.937-19.425-.87-5.325-2.299-10.556-3.27-15.867-.523-2.855-.512-5.802-.905-8.685-.675-4.957-1.475-9.898-2.225-14.845-.37-2.44-.856-4.868-1.098-7.32-.882-8.915-1.578-17.843-1.284-26.816.155-4.733-.023-9.501.5-14.191.662-5.938 1.934-11.806 2.85-17.719.646-4.171.99-8.392 1.73-12.545 1.255-7.032 3.404-13.797 7.031-19.999 1.594-2.726 3.403-5.326 5.135-7.97 1.17-1.786 4.838-3.348 6.417-3.011 2.167.463 2.951 2.059 2.757 3.824-.375 3.415-.94 6.847-1.845 10.157-1.87 6.844-4.25 13.553-5.967 20.431-1.252 5.016-1.803 10.209-2.62 15.33a1773.273 1773.273 0 0 0-2.934 18.972c-.25 1.678-.354 3.384-.426 5.081-.175 4.147-.274 8.297-.438 12.444-.108 2.747-.49 5.502-.371 8.236.288 6.632.745 13.258 1.237 19.878.321 4.32.736 8.637 1.27 12.936.426 3.429 1.098 6.828 1.653 10.242.566 3.483.993 6.994 1.722 10.442.66 3.125 1.553 6.209 2.502 9.262 2.47 7.944 4.973 15.879 7.569 23.783 1.943 5.917 4.066 11.775 6.078 17.67.886 2.594.331 4.109-1.666 4.119-1.59.007-2.878-1.006-3.58-2.52-.6-1.292-1.1-2.63-1.696-3.924-2.792-6.064-5.66-12.095-8.38-18.191-1.399-3.132-2.547-6.375-3.809-9.779ZM529.946 158.14c-5.656 1.403-11.066 2.967-16.558 4.152-3.911.844-8.004 1.922-11.885 1.548-4.809-.463-9.91.998-14.438-1.526-2.981-1.662-5.895-3.491-8.645-5.508-5.136-3.768-8.517-8.975-11.292-14.609-2.988-6.067-4.872-12.501-6.11-19.12-.47-2.512-.948-5.112-.788-7.631.239-3.784.983-7.541 1.612-11.293.78-4.657 2.426-9.037 4.388-13.319 2.697-5.886 7.533-9.761 12.588-13.372 5.917-4.227 12.382-7.539 19.339-9.6 4.108-1.217 8.466-1.655 12.74-2.238 8.263-1.125 16.267.955 24.109 2.89 11.238 2.772 17.676 11.017 20.918 21.68 1.775 5.84 2.661 11.956 3.858 17.965.662 3.322 1.421 6.665 1.612 10.029.154 2.733-.27 5.549-.796 8.259-1.03 5.304-3.286 10.142-6.255 14.641-2.423 3.671-5.893 6.296-9.215 9.049-4.44 3.679-9.68 5.899-15.182 8.003ZM550.581 198.64c-1.344-1.765-2.81-3.309-3.732-5.129-.521-1.029-.509-2.645-.098-3.761.729-1.977 2.809-1.863 4.319-1.425 1.579.458 3.125 1.476 4.355 2.608a108.982 108.982 0 0 1 17.199 20.202c4.132 6.266 7.362 13.083 8.511 20.625.75 4.925 1.411 9.889 1.663 14.859.471 9.265.836 18.547.828 27.822-.006 7.875-1.334 15.598-4.55 22.896-1.06 2.404-4.612 5.506-7.586 5.333-2.337-.135-4.615-1.835-4.554-4.156.088-3.374.489-6.752.951-10.102.534-3.88 1.332-7.724 1.915-11.599.499-3.318 1.15-6.652 1.211-9.988.103-5.545.117-11.13-.45-16.635-.533-5.176-1.733-10.3-2.882-15.392-1.361-6.03-2.781-12.099-5.884-17.524-3.576-6.249-7.397-12.359-11.216-18.634ZM81.291 176.346c-1.717 1.949-3.4 3.735-4.926 5.647-3.775 4.729-7.466 9.524-11.215 14.273-1.096 1.388-2.602 2.264-4.27 1.427-1.656-.831-1.428-2.663-1.338-4.232.21-3.628 2.058-6.654 4.072-9.439 4.226-5.846 8.674-11.552 13.94-16.52 5.504-5.193 11.295-10.035 17.63-14.235 3.41-2.261 6.689-4.66 10.808-5.38.911-.159 2.535-.089 2.735.361.393.89.419 2.406-.115 3.15-1.164 1.619-2.708 2.993-4.219 4.329-2.638 2.332-5.427 4.494-8.046 6.846-5.023 4.512-9.972 9.107-15.056 13.773Z"/></g><path fill="#231F20" d="M527.185 455.226c-1.813 5.839-3.931 11.489-5.138 17.329-1.849 8.951-5.736 17.234-7.863 26.069-.182.755-.513 1.504-.512 2.256 0 .302.685.816 1.097.859.702.073 1.432-.216 2.154-.238 5.331-.158 10.663-.357 15.995-.382 1.543-.008 3.104.446 4.617.842.3.079.662.914.576 1.308-.497 2.272-1.106 4.52-1.716 6.766-.098.361-.345.921-.594.962-2.654.446-2.311 2.778-2.657 4.464-.975 4.755-1.684 9.563-2.546 14.341a390.278 390.278 0 0 1-2.082 10.78c-.42 1.998-2.126 2.448-3.775 2.462-8.359.072-16.722.143-25.078-.039-2.308-.05-3.597-1.397-3.913-3.4-.878-5.573-1.899-11.123-2.872-16.68-.543-3.099-1.077-6.2-1.671-9.289-.217-1.131-.762-1.993-2.17-1.754-2.195.373-3.328-.583-3.749-2.783-.338-1.76-1.096-3.434-1.505-5.184-.447-1.915.359-2.832 2.306-2.837 3.8-.01 7.601-.057 11.4.013 3.33.061 6.66.213 9.983.427 1.1.07 1.34-.353 1.155-1.272-.166-.826-.227-1.723-.604-2.448-2.52-4.849-5.017-9.715-7.727-14.458-1.109-1.94-2.634-3.673-4.139-5.347a566.122 566.122 0 0 0-10.843-11.713c-1.353-1.423-2.913-2.646-4.35-3.991-1.116-1.044-2.291-.671-3.39-.11-6.39 3.265-12.64 2.456-18.479-1.129-2.096-1.287-3.763-3.564-5.119-5.711-2.051-3.25-3.483-6.891-5.506-10.163-1.966-3.181-3.999-6.452-6.612-9.073-6.077-6.095-13.564-10.065-21.819-12.285-3.675-.988-7.544-.154-11.255.865-3.401.932-6.815.79-10.326.357-6.608-.816-12.308-3.772-17.759-7.203-4.078-2.566-6.354-6.379-6.931-11.468-.449-3.964.41-7.333 2.688-10.223 2.252-2.859 4.885-5.479 8.641-6.547 3.201-.911 6.335-2.055 9.511-3.058.559-.176 1.175-.231 1.766-.234 4.353-.019 8.724-.267 13.054.048 7.283.529 14.604 1.059 21.179 4.897 2.029 1.184 4.325 1.901 6.449 2.933.473.23.739.89 1.1 1.352-.583.009-1.233.194-1.737-.001-3.275-1.268-6.656-2.357-9.736-4.007-3.793-2.032-7.893-2.254-11.943-2.675-4.059-.421-8.17-.334-12.258-.479-6.353-.224-12.334 1.195-18.123 3.802-4.085 1.84-6.81 4.764-8.071 9.006-1.417 4.766.378 10.915 4.766 14.292 4.416 3.398 9.53 5.185 14.609 6.811 4.446 1.424 9.303 1.638 13.961.18 5.731-1.792 11.13-.617 16.544 1.456 5.751 2.202 11.148 5.038 15.644 9.218 2.554 2.374 4.711 5.289 6.602 8.246 3.093 4.836 5.823 9.904 8.704 14.876 2.193 3.783 6.021 4.678 9.821 5.756 3.416.969 6.45-.233 9.495-1.338.908-.33 1.879-1.19 2.287-2.059.894-1.904 1.844-3.929 2.053-5.979a35.978 35.978 0 0 0-.949-12.665c-.788-3.05-1.444-6.209-2.771-9.029-2.809-5.967-6.038-11.69-11.509-15.803-2.025-1.522-3.65-3.579-5.458-5.393-2.931-2.94-5.89-5.854-8.764-8.85-.436-.454-.475-1.293-.698-1.954.619.226 1.266.397 1.845.699.351.183.593.572.89.861 4.584 4.461 8.884 9.271 13.827 13.286 5.535 4.496 8.762 10.494 11.879 16.52 1.708 3.302 2.245 7.271 2.977 11.004.565 2.878.885 5.866.802 8.79-.07 2.445-.821 4.883-1.391 7.295-.303 1.282-.276 2.266.761 3.283a849.784 849.784 0 0 1 13.607 13.645c1.49 1.53 2.686 3.344 4.137 4.916 3.415 3.701 5.491 8.166 7.432 12.721.126.295.215.638.428.854.295.301.689.503 1.041.747.063-.389.241-.802.171-1.166-1.532-7.889-2.99-15.796-5.773-23.379-.928-2.529-1.655-5.132-2.537-7.68-.388-1.122-1.281-1.902-2.45-1.401-2.27.974-4.249.057-6.238-.707-3.965-1.522-6.389-4.534-7.635-8.516-.186-.595.158-1.358.257-2.044.393.491.903.927 1.158 1.481 2.246 4.875 5.909 8.51 11.884 8.099 1.125-.077 1.654-.398 1.262-1.618-2.119-6.594-4.122-13.23-7.332-19.41-2.634-5.072-5.248-10.155-7.863-15.238-.175-.339-.441-.741-.387-1.067.122-.745.418-1.461.643-2.189.466.568 1.06 1.071 1.377 1.712 2.731 5.516 5.145 11.21 8.188 16.544 2.718 4.765 4.171 9.927 5.917 15.019.417 1.218.655 2.498 1.064 3.719.114.339.548.569.835.85.233-.242.514-.453.694-.731 2.768-4.267 3.217-8.842 2.471-13.849-.921-6.183-3.368-11.725-5.828-17.353-2.315-5.297-5.007-10.353-8.385-15.007-2.1-2.892-4.116-6.068-7.79-7.253-4.54-1.464-8.859-.969-12.618 2.164-3.029 2.524-2.32 4.275-.186 6.973.725.917 1.666 1.659 2.461 2.525.242.264.325.674.48 1.017-.423.082-1.014.386-1.242.211-2.333-1.785-5.379-3.216-5.839-6.392-.474-3.268 1.674-5.735 4.379-7.126 3.626-1.863 7.464-2.626 11.716-1.611 5.191 1.24 8.012 5.174 10.653 8.982 5.512 7.947 9.188 16.862 12.676 25.898 1.904 4.933 2.204 9.818 1.786 14.774-.209 2.477-1.575 5.114-3.12 7.138-1.226 1.607-1.372 2.789-.823 4.505a793.798 793.798 0 0 1 5.299 17.133c.371 1.259.263 2.655.478 3.971.062.384.478.709.732 1.062.16-.365.453-.727.46-1.094.044-2.217-.085-4.442.05-6.651.155-2.527.461-5.05.855-7.55.079-.503.848-.896 1.299-1.34.378.655 1.103 1.329 1.071 1.963-.105 2.042-.556 4.064-.748 6.106a101.129 101.129 0 0 0-.416 6.895c-.069 2.795.034 5.593-.034 8.388-.044 1.816-.264 3.627-.393 5.442a23.101 23.101 0 0 0-.066 1.842c.004.462.071.924.11 1.386.399-.415 1.031-.771 1.154-1.256.448-1.772.557-3.64 1.1-5.375 1.262-4.039 2.704-8.022 4.068-12.029.497-1.458 1.149-2.889 1.419-4.389.273-1.51.251-2.936-1.132-4.286-1.989-1.943-3.682-4.226-5.282-6.517-.625-.895-.777-2.189-.941-3.331-1.286-8.929-.8-17.92-.808-26.891-.002-1.686.579-3.367.757-5.064.072-.692.034-1.636-.371-2.099-3.539-4.045-5.45-8.89-7.169-13.882-1.689-4.904-3.857-9.655-5.325-14.619-1.653-5.587-2.825-11.323-4.079-17.022-.94-4.274-1.688-8.591-2.497-12.894-.088-.469.006-.969-.015-1.453-.272-6.47-.375-12.953-.87-19.405-.647-8.444.319-16.659 2.889-24.677 1.524-4.758 2.984-9.594 5.135-14.075 2.081-4.336 4.98-8.422 9.861-10.032 1.948-.643 4.257-.455 6.369-.272 3.753.326 7.282 1.394 9.67 4.638 2.13 2.894 3.689 5.975 4.364 9.643.62 3.373 2.355 6.527 3.152 9.884 1.074 4.517 1.738 9.134 2.543 13.715.853 4.849 1.56 9.727 2.52 14.554 1.128 5.674 2.493 11.301 3.671 16.967.19.911.311 1.249 1.019.453 1.566-1.761 3.537-2.503 5.814-3.041 2.004-.474 3.74-2.008 5.733-2.625 2.718-.841 5.56-1.294 8.364-1.838 1.236-.24 2.506-.311 3.763-.43 4.566-.432 8.499 1.167 12.104 3.814 3.075 2.257 6.289 4.347 9.198 6.8 4.687 3.954 7.12 9.428 9.676 14.872 1.623 3.458 2.635 7.004 2.721 10.688.079 3.423-1.991 6.324-3.547 9.298-1.177 2.249-2.586 4.153-4.977 5.286-3.346 1.587-7.448.913-10.11-1.531-3.026-2.779-5.263-6.13-7.143-9.726-1.06-2.028-2.157-3.925-4.234-5.088-.314-.176-.387-.785-.572-1.193.402-.123.824-.398 1.201-.345 2.414.338 3.441 2.352 4.577 4.103 1.759 2.71 3.07 5.753 5.062 8.263 3.455 4.352 7.446 6.13 12.165 2.365 1.873-1.494 2.82-4.282 3.912-6.611 3.002-6.399.588-12.089-2.582-17.618-1.382-2.411-2.656-4.911-4.281-7.151-3.057-4.215-7.171-7.211-11.5-10.093-4.718-3.14-9.693-4.058-15.101-3.627-4.37.349-8.622 1.169-12.35 3.72-.47.321-1.004.627-1.551.746-5.564 1.212-8.419 5.794-11.871 9.605-1.886 2.08-3.76 4.206-5.354 6.509-2.625 3.793-5.485 7.529-7.409 11.679-3.477 7.499-6.685 15.183-8.341 23.339-.998 4.918-1.405 9.954-2.145 14.927-.307 2.064-.83 4.096-1.173 6.157-.134.806-.097 1.653-.043 2.476.097 1.494.348 2.981.384 4.475.065 2.655-.304 5.364.098 7.959.527 3.398.125 7.09 2.119 10.105 1.085 1.641 2.699 2.95 4.162 4.315.815.761 1.255.829 1.584-.663 1.003-4.538 2.328-9.003 3.498-13.504 2.002-7.695 3.919-15.413 6.012-23.082.551-2.019 1.603-3.903 2.447-5.839 4.506-10.326 8.96-20.675 13.556-30.96 1.883-4.214 4.087-8.282 6.12-12.429.535-1.091.846-2.319 1.523-3.301.324-.468 1.265-.508 1.927-.742.042.572.31 1.257.091 1.696-1.892 3.794-4.053 7.461-5.787 11.323-3.172 7.063-6.067 14.251-9.158 21.351-1.457 3.348-3.04 6.643-4.671 9.91-3.1 6.209-5.299 12.689-6.556 19.536-.663 3.608-1.866 7.116-2.798 10.675-.106.405-.039.856-.157 1.389Zm-32.647-90.762c.829 6.238 1.278 12.557 2.587 18.691a175.989 175.989 0 0 0 5.795 20.856c2.49 7.183 5.699 14.115 8.612 21.149.149.359.476.644.721.964.175-.412.419-.808.515-1.238.964-4.314 1.626-8.719 2.923-12.928 1.506-4.884 3.64-9.57 5.361-14.391 2.409-6.749 6.56-12.413 11.014-17.854 2.123-2.592 4.685-4.828 7.097-7.174.926-.899 1.373-1.743.677-3.013-.33-.603-.371-1.368-.527-2.063-1.108-4.944-2.271-9.877-3.297-14.838-.664-3.211-1.159-6.459-1.67-9.7-.463-2.936-.639-5.934-1.304-8.82-1.671-7.251-3.487-14.469-5.362-21.67-.97-3.724-2.718-7.208-6.058-9.21-1.906-1.143-4.445-1.245-6.714-1.749-1.028-.228-2.198-.647-3.123-.372-5.34 1.59-8.729 5.563-10.941 10.35-1.926 4.167-3.223 8.646-4.574 13.056-1.591 5.191-2.698 10.48-2.585 15.982.11 5.402-.06 10.809.061 16.21.055 2.454.515 4.898.792 7.762ZM528.74 520.62c-5.937 0-11.874.023-17.811-.033-.629-.006-1.254-.476-1.881-.731.651-.299 1.299-.851 1.953-.859 5.591-.07 11.184-.041 16.776-.038.476.001 1.144-.167 1.398.08 1.902 1.854 1.615-.673 1.763-1.07.494-1.327.514-2.825.941-4.186.58-1.853.171-2.399-1.863-2.362-7.132.13-14.268.006-21.402.069-3.533.031-7.065.275-10.598.39-1.448.047-2.906-.07-4.345.055-.427.036-1.189.697-1.147.973.459 3.039 1.028 6.062 1.603 9.083.953 5.003 1.833 10.023 2.957 14.987.348 1.538-.111 3.996 2.632 4.007 8.422.034 16.845.039 25.266-.039.634-.006 1.652-.629 1.822-1.175.596-1.917.936-3.92 1.307-5.903.769-4.118 1.499-8.243 2.232-12.368.074-.415.055-.847.08-1.271-.423.13-.846.261-1.683.391Zm-19.899-10.812c8.008 0 16.018-.051 24.025.042 1.643.019 2.085-.784 2.298-2.085.149-.91.11-1.893.45-2.722.799-1.943-.327-1.934-1.671-1.894-5.189.152-10.379.337-15.569.394-2.082.024-4.166-.36-6.249-.358-2.152.001-4.309.417-6.455.353-6.171-.186-12.34-.485-18.504-.826-1.57-.086-1.755.524-1.34 1.793.44 1.344.955 2.679 1.214 4.059.241 1.279.899 1.74 2.088 1.658 1.877-.131 3.751-.371 5.628-.395 4.556-.058 9.113-.019 14.085-.019Z"/><path fill="#231F20" d="M539.208 464.791c2.314-2.581 4.809-4.863 6.673-7.579 3.192-4.651 4.597-10.143 6.257-15.469 1.171-3.755 2.232-7.554 3.117-11.385 1.158-5.017 1.894-10.138 3.189-15.115 1.079-4.149 2.653-8.173 4.108-12.216.562-1.56 1.312-3.074 2.169-4.492.242-.401 1.163-.388 1.773-.565-.076.473-.039 1.004-.245 1.411-3.028 5.964-4.802 12.327-6.233 18.832-2.111 9.596-4.101 19.21-7.359 28.536-2.264 6.48-5.271 12.207-10.018 17.317-4.838 5.208-10.848 7.841-17.141 10.271-.411.158-1.013-.182-1.526-.29.328-.417.569-1.014.997-1.221 2.704-1.306 5.53-2.378 8.157-3.819 2.109-1.157 3.994-2.726 6.082-4.216ZM469.353 446.077c-4.739-5.585-9.214-11.214-14.059-16.502-4.072-4.445-9.311-7.455-14.482-10.477-2.509-1.466-4.974-3.008-7.433-4.556-.456-.287-.854-.725-1.158-1.176-.198-.292-.176-.734-.252-1.109.373-.02.825-.186 1.108-.035a72.398 72.398 0 0 1 4.009 2.328c3.793 2.353 7.614 4.665 11.341 7.12 2.141 1.412 4.285 2.896 6.144 4.649 7.447 7.024 14.108 14.741 19.622 23.4 1.309 2.056 2.421 4.247 3.491 6.44.278.568.056 1.382.063 2.082-.569-.432-1.318-.749-1.677-1.315-2.253-3.55-4.419-7.157-6.717-10.849ZM588.128 398.046c-.446-.61-.717-1.946-1.249-.203-.656 2.151-1.283 4.311-1.987 6.445-.141.429-.573.762-.87 1.139-.256-.42-.813-.931-.718-1.245.796-2.636 1.725-5.232 2.58-7.852.168-.514.428-1.19.237-1.602-2.152-4.646-4.316-9.291-6.619-13.864-1.694-3.364-4.559-5.678-7.503-7.913-.772-.587-1.791-2.281-1.666-2.402 1.356-1.322 2.076.377 2.875.96 5.257 3.833 8.809 8.998 11.322 14.96.447 1.062 1.101 1.863 2.648 2.007 2.12.199 3.914 1.483 4.856 3.555.19.418-.041 1.029-.078 1.55-.342-.208-.714-.379-1.019-.631-.983-.814-1.905-1.706-2.929-2.463-.345-.255-.922-.196-1.394-.28.07.513.033 1.071.226 1.533 1.628 3.893 3.32 7.758 4.924 11.661.184.447-.056 1.069-.099 1.61-.511-.266-1.33-.415-1.482-.817-.748-1.978-1.319-4.023-2.055-6.148ZM424.371 412.808c-.801.236-1.64.687-2.175.449-4.445-1.975-9.132-2.608-13.921-2.849a646.776 646.776 0 0 1-14.127-.855c-.686-.049-1.341-.528-2.01-.808.687-.413 1.366-1.169 2.061-1.185 6.575-.153 13.115.219 19.577 1.593 2.426.516 4.94.67 7.317 1.337 1.237.347 2.261 1.452 3.278 2.318Z"/><path fill="#231F20" d="M529.258 467.286c-.241.104-.382.083-.515.108-.578.107-1.153.228-1.729.343.247-.618.32-1.453.77-1.819 2.711-2.203 5.428-4.415 8.303-6.391 2.211-1.521 4.627-2.759 7.019-3.991.616-.317 1.488-.134 2.242-.181-.454.577-.798 1.326-1.38 1.703-2.814 1.819-5.758 3.44-8.525 5.325-2.128 1.451-4.061 3.189-6.185 4.903ZM545.219 444.206a1260.931 1260.931 0 0 1-13.382 7.582c-.379.212-.855.25-1.286.369.018-.516-.175-1.259.092-1.508 1.05-.985 2.135-2.038 3.405-2.662 4.584-2.256 9.233-4.383 13.904-6.455.556-.246 1.394.148 2.101.246-.455.481-.825 1.166-1.383 1.4-1.059.445-2.225.631-3.451 1.028ZM431.937 423.725c-1.46-1.21-.656-1.738.513-1.622 2.946.29 5.94.525 8.784 1.279 2.941.78 5.75 2.091 8.563 3.297.596.255.96 1.058 1.43 1.608-.658.041-1.378.278-1.964.092-3.96-1.258-7.864-2.697-11.844-3.882-1.686-.501-3.512-.529-5.482-.772ZM551.023 427.156a1367.445 1367.445 0 0 1-14.963 8.74c-.425.244-1.012.205-1.524.297.062-.473.022-.993.214-1.405.195-.417.554-.844.953-1.065 4.601-2.548 9.219-5.069 13.85-7.563.439-.236.998-.305 1.508-.335.361-.021.734.153 1.102.24-.345.329-.691.658-1.14 1.091ZM516.821 435.057c-.445-.446-1.008-.75-1.075-1.139-.101-.594.141-1.248.237-1.876.413.307.914.542 1.223.931 2.556 3.212 5.065 6.461 7.611 9.68 1.099 1.39 1.401 2.97 1.209 4.671-.033.29-.322.551-.492.826-.244-.171-.66-.304-.705-.517-1-4.669-4.648-7.639-7.173-11.326-.256-.373-.488-.763-.835-1.25ZM500.342 436.616c0 3.104.034 6-.033 8.894-.011.506-.449 1.002-.689 1.503-.312-.429-.862-.84-.897-1.291a139.12 139.12 0 0 1-.406-8.089c-.022-1.114.253-2.233.359-3.353.052-.543-.144-1.179.075-1.623.335-.678.931-1.226 1.417-1.829.196.676.557 1.354.552 2.03-.008 1.184-.24 2.367-.378 3.758ZM536.72 402.62c.518 2.911.938 5.717 1.341 8.526.048.34.133.772-.022 1.021-.263.424-.704.738-1.071 1.098-.186-.477-.445-.939-.547-1.433-.578-2.814-.989-5.671-1.728-8.44-.337-1.265-1.302-2.359-1.969-3.539-.214-.378-.384-.782-.575-1.174.61-.019 1.529-.301 1.776-.01 1.009 1.186 1.812 2.549 2.795 3.951ZM520.138 457.514c.494 1.05 1.042 1.967 1.222 2.952.127.7-.241 1.491-.388 2.241-.391-.458-.912-.856-1.151-1.383a486.238 486.238 0 0 1-4.938-11.249c-.199-.471.023-1.121.05-1.688.526.309 1.303.49 1.534.948 1.065 2.112 1.983 4.299 2.941 6.464.233.526.419 1.073.73 1.715ZM528.429 434.433c-.587-1.425-1.135-2.937-1.541-4.487-.749-2.859-2.113-5.325-4.24-7.39-.313-.304-.307-.937-.449-1.419.569.078 1.303-.047 1.68.264 3.434 2.837 4.691 6.819 5.431 10.998.102.579-.501 1.284-.881 2.034ZM459.817 415.511c.532.465 1.303 1.016 1.333 1.605.172 3.376.243 6.763.139 10.139-.016.504-1.142.974-1.754 1.46-.079-.675-.22-1.349-.225-2.024-.022-2.717-.035-5.434.022-8.149.021-.978.248-1.951.485-3.031ZM461.372 442.855c1.915.175 3.651.313 4.848 1.776.23.281.228.753.333 1.136-.382.032-.779.145-1.145.081-2.443-.422-4.869-.966-7.325-1.287-.944-.124-1.951.326-2.93.329-.414.002-.829-.476-1.243-.736.311-.295.573-.708.942-.864 2.045-.861 4.137-1.341 6.52-.435ZM471.322 434.121a120.917 120.917 0 0 1-2.088 5.754c-.125.318-.441.56-.669.838-.187-.267-.533-.535-.532-.802.002-1.098-.151-2.297.229-3.273.995-2.562 1.645-5.13 1.429-7.9-.032-.409.307-.846.475-1.27.385.424 1.068.826 1.103 1.278.131 1.714.053 3.444.053 5.375ZM547.085 415.304a162.233 162.233 0 0 1-4.553 2.884c-.242.147-.579.137-.872.199.012-.334-.115-.814.057-.98 1.062-1.018 2.082-2.147 3.323-2.894 1.759-1.058 3.513-2.422 5.785-1.986.484.093.894.569 1.338.869-.42.254-.811.599-1.265.747-1.222.397-2.471.71-3.813 1.161ZM487.075 444.518c2.243 1.071 4.3 2.104 6.3 3.238.567.321 1.011.902 1.421 1.435.115.149-.029.591-.181.812-.062.092-.48.008-.696-.088-2.152-.956-4.313-1.895-6.429-2.926-.583-.284-1.188-.771-1.487-1.325-.369-.681-.43-1.532 1.072-1.146ZM494.123 426.22c.139 2.007.297 3.805.397 5.606.02.343-.188.698-.291 1.048-.41-.168-1.035-.226-1.188-.527-.371-.727-.737-1.572-.718-2.36.049-1.997.254-3.998.533-5.977.058-.406.712-.726 1.091-1.086.197.468.536.931.554 1.406.021.555-.239 1.121-.378 1.89ZM577.141 385.569c.249-.526.328-.99.559-1.359.194-.31.563-.509.855-.757.185.338.539.68.528 1.011a281.702 281.702 0 0 1-.412 8.522c-.018.273-.382.523-.585.784-.211-.249-.574-.478-.609-.75a68.307 68.307 0 0 1-.428-4.449c-.062-.962-.012-1.932.092-3.002ZM487.49 431.626c.206 1.043.153 1.575-.886.984-.94-.534-1.938-.987-2.802-1.623-.375-.275-.481-.919-.709-1.396.551-.153 1.281-.607 1.62-.404 1.008.606 1.862 1.469 2.777 2.439ZM521.07 377.98c.879 2.475 1.757 4.743 2.64 7.01.023.059.143.107.136.147-.155.939-.322 1.877-.487 2.815-.625-.554-1.698-1.041-1.793-1.675-.34-2.266-2.005-3.245-3.51-4.552-1.282-1.113-2.244-2.624-3.229-4.041-.241-.347-.019-1.018-.01-1.54.431.131 1.017.13 1.264.42.717.843 1.266 1.83 1.953 2.702.217.275.665.366 1.006.542.004-.384.103-.797-.004-1.146-.96-3.132-2.146-6.208-2.894-9.389-1.016-4.323-1.899-8.697-2.49-13.096-.969-7.212-2.025-14.437-1.668-21.753.036-.741.55-1.46.843-2.189.26.692.678 1.367.756 2.079.598 5.447 1.356 10.89 1.623 16.356.302 6.178 1.447 12.176 2.993 18.114.792 3.039 1.904 5.995 2.871 9.196ZM525.216 368.831a140.707 140.707 0 0 1 1.66-5.111c.164-.483.222-1.086.549-1.411.438-.435 1.09-.652 1.65-.964-.01.592.088 1.209-.047 1.77a1071.438 1071.438 0 0 1-3.84 15.598c-.158.617-.707 1.133-1.074 1.696-.323-.625-1.009-1.315-.911-1.864.569-3.187 1.322-6.341 2.013-9.714ZM511.224 359.578c.784 1.202 1.522 2.27 2.11 3.416.185.358-.034.926-.068 1.397-.43-.105-1.024-.068-1.26-.341-.853-.993-1.75-2.006-2.332-3.163-1.689-3.364-3.231-6.801-4.838-10.206-.083-.175-.351-.338-.329-.474.133-.832.326-1.655.498-2.481.389.598.836 1.165 1.156 1.797 1.671 3.308 3.31 6.632 5.063 10.055ZM522.314 356.771c-.276 2.1-.492 4.005-.865 5.878-.116.58-.661 1.074-1.009 1.608-.205-.459-.485-.899-.601-1.379-.786-3.249.663-6.271 1.03-9.403.163-1.398.569-2.796 1.077-4.112.249-.646.982-1.105 1.496-1.649.159.75.562 1.545.432 2.241-.414 2.222-1.025 4.408-1.56 6.816ZM516.613 340.24c.687-1.382 1.191-2.707 1.898-3.912.241-.411.993-.52 1.511-.766.048.51.247 1.062.12 1.523a240.795 240.795 0 0 1-2.414 8.119c-.098.309-.549.506-.836.754-.265-.339-.767-.685-.757-1.016.048-1.535.236-3.066.478-4.702ZM509.151 534.863c5.018-.242 9.933-.381 14.847-.518.345-.01.736-.106 1.026.02.642.28 1.233.676 1.844 1.024-.617.345-1.228.975-1.852.988-4.349.087-8.699.046-13.049.046-.898 0-1.802.064-2.691-.025-.487-.05-.949-.358-1.422-.549.398-.294.796-.588 1.297-.986ZM506.042 525.715c-.22.451-.518 1.067-.871 1.1-2.331.223-4.674.393-7.014.411-.62.005-1.245-.582-1.868-.897.524-.239 1.043-.671 1.573-.685 2.69-.071 5.384-.033 8.18.071Z"/><path fill="#fff" d="m156.24 297.6 36.109 56.213h88.631l4.22-9.837h-29.074L223.768 297.6H156.24Z"/><path fill="#00160A" d="M285.324 381.847c-9.045 0-17.881.054-26.716-.016-8.194-.065-16.388-.249-24.582-.408-5.956-.116-11.912-.272-17.868-.416-5.677-.136-11.355-.225-17.029-.433-5.831-.213-11.658-.531-17.486-.828-5.13-.261-10.261-.506-15.386-.848-5.355-.359-10.702-.834-16.054-1.242-3.869-.295-7.743-.525-11.608-.864-1.233-.108-1.449.316-1.435 1.469.066 5.73.073 11.462.021 17.193-.111 12.337-.303 24.673-.387 37.01-.02 2.946.388 5.896.367 8.842-.039 5.394-.322 10.787-.362 16.181-.022 2.876.388 5.756.367 8.632-.08 11.055-.245 22.11-.399 33.164-.123 8.773-.285 17.544-.411 26.317-.04 2.745-1.588 4.283-4.404 4.293-2.345.009-3.952-1.75-4.001-4.278-.119-6.093-.295-12.185-.403-18.278-.054-3.028-.063-6.059.007-9.087.055-2.368.389-4.734.373-7.099-.023-3.437-.306-6.872-.374-10.31-.07-3.518-.055-7.038-.008-10.556.116-8.678.319-17.356.386-26.035.023-2.97-.343-5.942-.375-8.914-.064-5.918-.019-11.837-.019-17.756 0-3.449-.054-6.898.016-10.346.068-3.368.349-6.732.385-10.1.066-6.034.005-12.069.041-18.104.003-.559.317-1.117.487-1.676.148.068.387.101.43.21.219.563.468 1.134.555 1.725.128.875.199 1.77.172 2.653-.111 3.765-.393 7.53-.377 11.293.023 5.488.318 10.975.361 16.463.022 2.83-.37 5.663-.361 8.494.011 3.391.342 6.781.359 10.172.013 2.552-.355 5.104-.359 7.656-.003 2.388.382 4.778.361 7.165-.04 4.44-.345 8.878-.361 13.317-.012 3.436.362 6.874.359 10.31-.004 3.67-.342 7.34-.359 11.011-.013 2.761.37 5.524.359 8.285-.014 3.461-.36 6.921-.359 10.382.002 3.53.358 7.06.359 10.591 0 3.485-.402 6.972-.342 10.453.049 2.893.396 5.799.882 8.654.109.635 1.331 1.448 2.084 1.495.642.041 1.534-.779 1.967-1.444.399-.612.456-1.526.457-2.306.023-17.823.018-35.645.018-53.467 0-12.115-.054-24.23.016-36.345.069-12.103.318-24.206.377-36.309.023-4.834-.293-9.668-.368-14.504-.022-1.407.298-2.816.385-4.229.157-2.526-.273-2.917-2.743-3.117-4.585-.372-9.181-.694-13.742-1.274-7.429-.945-14.975-1.34-22.132-3.786-2.925-.999-5.783-2.284-8.513-3.737-2.424-1.292-2.948-3.766-2.775-6.315.163-2.417 1.639-4.091 3.818-4.802 4.877-1.59 9.794-3.097 14.772-4.328 2.218-.549 4.637-.228 6.938-.517 3.628-.454 7.226-1.14 10.85-1.633 2.67-.363 5.355-.656 8.043-.835 3.363-.224 6.746-.181 10.102-.467 5.372-.457 10.727-1.104 16.092-1.643a99.828 99.828 0 0 1 5.49-.417c3.787-.172 7.576-.289 11.365-.429 3.788-.14 7.577-.266 11.364-.438.431-.019.851-.293 1.276-.448-.189-.437-.319-.911-.575-1.304-3.801-5.837-7.64-11.65-11.426-17.498-3.387-5.231-6.728-10.491-10.071-15.749-2.39-3.759-4.803-7.506-7.099-11.323-1.026-1.704-.652-2.537 1.258-2.93 1.172-.241 2.428-.108 3.645-.084.45.009.895.266 1.345.274 9.033.155 18.067.273 27.099.437 5.817.106 11.674-.103 17.437.523 5.353.582 10.469-.428 15.688-.869.863-.073 2.154.677 2.675 1.438 5.133 7.497 10.11 15.1 15.203 22.624a1746.736 1746.736 0 0 0 14.705 21.374c.806 1.153 1.836 1.939 3.608 1.942 14.348.023 28.696.22 43.044.349 3.496.031 6.994-.045 10.49.016 5.747.098 11.493.252 17.239.413 3.929.111 7.856.282 11.785.412 4.487.149 8.976.246 13.462.431 5.9.243 11.798.537 17.695.833 5.2.262 10.398.565 15.597.832 3.088.158 6.187.178 9.265.445 5.51.478 11.005 1.118 16.511 1.647 3.376.324 6.772.469 10.138.87 5.04.601 10.069 1.305 15.088 2.061 4.194.632 8.408 1.219 12.536 2.163 3.79.867 7.603 1.885 11.172 3.391 3.206 1.353 2.887 2.49 2.039 5.215-.401 1.288-1.361 2.458-1.53 3.751-.55 4.219-3.781 4.961-7.007 5.596a602.732 602.732 0 0 1-18.54 3.353c-2.791.459-5.633.641-8.459.858-5.908.455-11.82.846-17.73 1.27-3.801.273-7.598.607-11.402.826-5.616.324-11.235.59-16.855.846-6.597.3-13.196.543-19.792.85-5.34.248-10.678.563-16.017.828-3.228.161-6.457.376-9.687.408-17.428.173-34.858.295-52.497.435Zm170.585-24.325c-1.183-.343-2.348-.78-3.552-1.014-4.216-.818-8.431-1.666-12.677-2.307-3.005-.454-6.064-.533-9.087-.886-5.591-.653-11.164-1.463-16.76-2.057-3.926-.417-7.881-.556-11.819-.873-4.794-.387-9.58-.897-14.377-1.235a1384.42 1384.42 0 0 0-20.46-1.265c-5.827-.324-11.657-.595-17.487-.839-4.416-.184-8.836-.304-13.255-.424-5.746-.156-11.493-.297-17.241-.42-7.145-.154-14.291-.367-21.437-.405-12.589-.066-25.179-.026-37.768.012-.508.001-1.015.436-1.522.669.484.186.967.532 1.452.535 5.455.038 10.91-.001 16.365.058.638.007 1.271.48 1.906.737-.502.175-.999.368-1.508.521-.5.15-1.012.365-1.52.369-3.846.031-7.693.03-11.54.009-1.159-.006-2.317-.106-3.476-.163.701 1.248 1.397 2.498 2.111 3.739.101.175.272.327.443.442.323.219.675.584 1.007.576 3.859-.097 7.717-.307 11.577-.341.682-.006 1.37.655 2.056 1.008-.684.206-1.366.585-2.052.591-5.759.048-11.518-.023-17.277.039-8.965.096-17.928.324-26.893.392-9.162.07-18.324.016-27.486.016-2.286 0-4.577.081-6.856-.048-.713-.04-1.393-.647-2.089-.995.69-.351 1.358-.761 2.078-1.03.368-.138.83-.024 1.25-.024 19.233 0 38.467.002 57.7-.013.498-.001.995-.193 1.493-.295-.221-.468-.382-.978-.672-1.397a4838.846 4838.846 0 0 0-12.34-17.75c-3.337-4.774-6.715-9.52-10.051-14.295a1864.78 1864.78 0 0 1-11.735-16.958c-.282-.413-.107-1.137-.145-1.717.457.295 1.06.489 1.35.901 3.95 5.625 7.861 11.278 11.775 16.928 6.283 9.071 12.557 18.149 18.846 27.216a422.888 422.888 0 0 0 5.058 7.128c.17.235.577.297.873.44.018-.387.196-.87.029-1.146-1.189-1.963-2.386-3.927-3.694-5.812-6.6-9.506-13.261-18.97-19.846-28.486-4.016-5.802-7.918-11.682-11.909-17.501-.633-.923-1.482-1.541-2.792-1.372-1.887.244-3.799.442-5.697.419-4.21-.052-8.417-.271-12.626-.388-5.747-.158-11.494-.309-17.241-.418-8.545-.162-17.09-.285-25.634-.425-.14-.002-.281.012-.42-.002-.974-.094-1.947-.193-2.921-.291.532.945 1.022 1.917 1.602 2.831 4.247 6.703 8.473 13.419 12.78 20.082 6.742 10.428 13.548 20.814 20.298 31.237.304.468.428 1.113.45 1.682.013.333-.344.68-.534 1.021-.229-.216-.518-.395-.678-.653-.999-1.61-1.826-3.352-3.005-4.813-.631-.781-1.879-1.572-2.805-1.523-4.522.237-9.023.835-13.543 1.151-3.71.26-7.436.286-11.154.448-6.04.264-12.08.515-18.116.851-3.456.192-6.907.501-10.353.832a936.96 936.96 0 0 0-16.299 1.687c-2.372.27-4.73.699-7.079 1.136-3.759.699-7.519 1.397-11.25 2.223a82.845 82.845 0 0 0-7.726 2.117c-.738.24-1.28 1.08-1.912 1.645.587.514 1.11 1.143 1.777 1.515 1.01.564 2.08 1.128 3.196 1.376 2.962.661 5.97 1.115 8.947 1.721 4.636.945 9.227 2.178 13.9 2.871 6.251.927 12.553 1.54 18.848 2.128 5.76.538 11.54.865 17.311 1.283 3.87.281 7.74.571 11.612.836 6.26.43 12.516.961 18.783 1.229 6.65.284 13.312.289 19.967.463 2.882.075 5.76.262 8.639.41 5.34.274 10.676.684 16.019.81 10.012.234 20.026.331 30.04.436 5.315.056 10.631.046 15.946.003 15.049-.12 30.1-.205 45.147-.44 7.72-.121 15.435-.557 23.153-.797 2.773-.086 5.552.034 8.327-.025 4.768-.101 9.536-.25 14.303-.415 3.021-.104 6.042-.233 9.058-.421 6.263-.392 12.522-.825 18.783-1.252 3.941-.269 7.879-.587 11.822-.829 5.058-.311 10.121-.532 15.178-.859 3.315-.214 6.642-.411 9.93-.857 5.333-.724 10.648-1.592 15.954-2.5 5.8-.993 11.554-2.087 17.04-4.445 2.001-.86 1.108-1.471.26-1.922-1.818-.966-3.793-1.635-6.123-2.426Zm-293.331 18.873c4.29.279 8.578.59 12.869.831 5.547.311 11.096.598 16.647.839 7.156.311 14.314.565 21.471.847 3.439.135 6.877.318 10.317.41 6.375.17 12.753.425 19.128.403 22.811-.077 45.622-.232 68.432-.408 6.937-.053 13.872-.251 20.807-.411 4.908-.113 9.815-.271 14.723-.415 9.465-.277 18.93-.555 28.395-.84 4.348-.13 8.696-.278 13.044-.416.28-.009.562.021.839-.005 5.923-.555 11.843-1.145 17.769-1.663 3.865-.338 7.754-.446 11.607-.877 6.587-.739 13.134-1.986 19.737-2.389 5.906-.361 11.577-1.608 17.224-3.096 1.711-.451 3.83-.266 4.985-2.103.267-.425.378-.947.561-1.424-.519-.026-1.098-.218-1.547-.053-7.396 2.716-15.229 3.213-22.908 4.425-5.318.839-10.716 1.184-16.081 1.728-5.641.573-11.277 1.218-16.93 1.653-5.329.41-10.675.605-16.015.861-3.577.171-7.159.247-10.735.435-4.572.24-9.138.605-13.711.816-7.085.328-14.172.704-21.262.824-13.857.235-27.718.308-41.577.446a214.6 214.6 0 0 1-3.848 0c-15.608-.138-31.215-.255-46.823-.429-6.446-.072-12.892-.253-19.338-.412-10.305-.254-20.618.492-30.922-.758-5.847-.709-11.788-.648-17.687-.912-3.647-.163-7.299-.243-10.945-.434a751.35 751.35 0 0 1-13.499-.836c-5.494-.387-10.986-.788-16.472-1.265-3.959-.345-7.908-.805-11.858-1.248-6.076-.682-12.135-1.758-18.227-2-7.528-.299-14.492-2.68-21.584-4.702-.24-.069-.646-.192-.718-.096-.163.216-.312.635-.205.826.276.496.603 1.118 1.071 1.327 1.768.789 3.547 1.695 5.42 2.082 4.796.992 9.645 1.724 14.472 2.569 4.758.832 9.494 1.833 14.279 2.47 4.694.625 9.436.892 14.159 1.299 1.898.164 3.802.261 5.7.427 6.273.549 12.545 1.115 19.236 1.674Z"/><path fill="#fff" d="M146.264 347.404c0 3.287-4.85 6.409-10.257 6.409s-10.256-3.122-10.256-6.409-1.865-12.36 10.723-9.613c11.189-.458 9.79 6.326 9.79 9.613Z"/><path fill="#231F20" d="M150.909 345.184c-2.263 1.078-2.94 2.995-3.999 5.092-1.543 3.054-4.578 5.176-8.449 5.042-3.662-.126-7.351.311-10.771-1.694-1.85-1.084-3.157-2.845-3.32-4.674-.252-2.807.144-5.766.756-8.543.579-2.631 2.972-3.7 5.238-4.211 4.29-.967 8.607-.709 12.773.828.938.346 1.687 1.214 2.602 1.671.769.385 1.787.928 2.459.687 1.492-.535 2.944-1.564 4.211.104 1.069 1.408.43 3.687-1.254 5.442l-.246.256Zm-24.633 3.086c.698 1.065 1.175 2.49 2.134 3.13 3.926 2.618 8.348 2.251 12.571 1.253 3.829-.905 5.798-5.484 4.177-8.901-.349-.735-1.343-1.436-2.134-1.574-1.048-.182-2.211.426-3.285.305-3.553-.399-7.083-1.012-10.633-1.446-.76-.093-2.154.036-2.256.382-.61 2.069-1.57 4.181-.574 6.851Zm13.696-10.003c-3.078 0-6.156-.014-9.233.026-.263.003-.522.362-.783.556.292.232.575.649.879.667 3.291.187 6.584.358 9.878.427 1.045.021 2.095-.277 3.143-.43-1.09-.415-2.18-.831-3.272-1.243-.06-.022-.135-.003-.612-.003Zm10.63 2.554c-.927.539-2.22.858-2.675 1.68-.444.801-.03 2.116.008 3.206.473-.487.948-.971 1.419-1.459.429-.443 1-.818 1.241-1.354.242-.536.155-1.233.007-2.073ZM131.591 361.253c-2.27-.448-4.403-.702-6.37-1.436-.833-.31-2.683-.641-1.826-2.585.748-1.699 2.335-2.408 3.76-1.631.316.172.508.591.756.896-.288.167-.584.319-.861.503-.402.268-.789.56-1.183.841.367.171.719.425 1.103.501 3.765.742 7.514 1.167 11.369.429 1.907-.364 3.932-.019 5.901-.09 1.239-.044 2.482-.429 3.704-.35.83.053 1.629.644 2.441.994-.665.359-1.314.99-1.998 1.034-5.527.36-11.06.611-16.796.894Z"/><path fill="#00160A" d="M307.356 541.368c-6.494-.558-12.776-1.15-19.064-1.661-2.807-.228-5.627-.319-8.443-.427-4.215-.163-8.433-.257-12.647-.432-6.121-.253-12.238-.677-18.361-.798-7.098-.141-14.201-.081-21.302-.023-12.624.103-25.249.247-37.872.422-3.797.053-7.591.3-11.388.394-2.545.062-5.093.062-7.638 0-4.007-.096-8.012-.301-12.018-.4-6.808-.167-13.617-.335-20.426-.412-6.049-.068-12.138.401-18.138-.144-4.933-.447-9.734-2.197-14.649-3.052-2.688-.467-4.687-1.734-6.16-3.804-2.068-2.905-.297-7.577 3.42-9.402 2.836-1.393 5.665-2.467 8.858-2.486.784-.005 1.564-.369 2.349-.38 3.316-.045 6.636-.079 9.949.045.503.019 1.204.804 1.415 1.38.438 1.201-.538 1.151-1.296 1.06-2.059-.249-4.106-.694-6.171-.783-1.754-.076-3.574.025-5.278.421-2.847.662-5.692 1.449-8.407 2.513-1.949.763-3.257 2.266-3.225 4.674.028 2.161 1.159 3.456 2.985 4.042 4.275 1.371 8.612 2.552 12.927 3.8.193.056.418.004.628.007 7.439.139 14.878.379 22.318.388 6.318.009 12.694-.855 18.941-.259 12.018 1.147 24.024.466 36.03.675 4.236.073 8.479-.267 12.72-.376 2.055-.053 4.112.008 6.168-.012 13.745-.134 27.49-.37 41.235-.37 5.49 0 10.981.487 16.468.8 4.16.238 8.317.544 12.474.831 5.992.414 11.988.787 17.974 1.273 4.038.328 8.074.728 12.088 1.264 4.419.59 8.807 1.405 13.218 2.057 2.395.354 4.81.58 7.217.85 5.022.564 10.036 1.249 15.072 1.631 3.274.247 6.587-.063 9.875.067 9.077.359 18.147.999 27.226 1.167 5.343.099 10.699-.471 16.046-.774 4.44-.252 8.892-.411 13.312-.87 5.191-.539 10.38-1.209 15.52-2.104 4.328-.753 8.704-1.568 12.833-3.001 2.966-1.03 5.94-2.713 8.24-4.829 4.491-4.13 2.972-8.108-1.124-10.88-4.698-3.179-9.89-5.577-15.781-5.993-3.621-.256-7.224-.786-10.826-1.265-.31-.041-.803-.66-.759-.939.066-.407.566-1.085.839-1.066 3.31.231 6.627.462 9.912.914 2.607.358 5.322.652 7.723 1.626 4.829 1.96 9.899 3.641 13.168 8.22 2.848 3.992 1.563 7.327-1.008 10.255-3.75 4.273-8.949 6.21-14.341 7.371-5.638 1.213-11.355 2.09-17.062 2.952-3.078.465-6.204.677-9.317.853-6.046.341-12.097.6-18.148.85-7.38.305-14.822 1.267-22.127.649-7.476-.634-14.922-.931-22.405-1.118-4.738-.119-9.477-.661-14.188-1.236-4.355-.532-8.665-1.419-13.01-2.039-2.741-.391-5.518-.523-8.265-.874-2.707-.347-5.397-.823-8.304-1.242Z"/><path fill="#00160A" d="M422.508 523.134c0 1.545.004 2.879 0 4.213-.006 2.021-1.586 3.425-3.787 3.371-1.905-.045-3.277-1.33-3.243-3.272.077-4.32.355-8.638.366-12.958.009-3.593-.31-7.185-.368-10.779-.07-4.33-.017-8.662-.017-12.994v-1.474c0-5.126.047-10.252-.018-15.377-.036-2.822-.369-5.641-.378-8.462-.042-13.435-.018-26.871-.018-40.306v-44.169c0-.492-.156-1.066.043-1.451.2-.386.755-.583 1.154-.863.153.306.439.612.441.919.029 4.587-.031 9.176.038 13.763.049 3.292.333 6.58.379 9.871a548.29 548.29 0 0 1-.001 14.396c-.022 1.863-.349 3.723-.366 5.585-.012 1.415.366 2.833.367 4.249.025 24.505.018 49.01.018 73.515 0 8.45-.002 16.9.003 25.35.001.868-.245 1.812 1.154 1.962 1.318.141 1.828-.6 2.137-1.625.136-.449.023-.976.023-1.467 0-2.738-.015-5.477.002-8.215.134-21.639.288-43.277.393-64.915.011-2.258-.38-4.519-.365-6.777.02-3.172.348-6.343.354-9.515.006-2.82-.381-5.642-.358-8.462.062-7.525.227-15.051.4-22.575.072-3.151.392-6.3.374-9.449-.027-4.857-.261-9.713-.372-14.571-.019-.824-.35-2.098 1.034-1.98 1.04.088 1.804.768 1.058 2.103-.208.372-.015.966-.035 1.456-.133 3.313-.368 6.624-.382 9.937-.01 2.633.334 5.267.355 7.902.015 1.861-.324 3.722-.356 5.586-.019 1.133.362 2.27.367 3.406.036 7.653.055 15.307 0 22.96-.02 2.821-.365 5.641-.365 8.462 0 2.821.38 5.642.361 8.462-.087 13.213-.293 26.425-.367 39.637-.022 3.897.384 7.797.362 11.694-.042 7.549-.248 15.098-.387 22.857ZM252.394 518.535c-5.404.143-10.601.231-15.793.443-5.28.216-10.553.579-15.831.833-6.466.311-12.934.593-19.402.855-4.283.174-8.583.114-12.849.475-6.586.556-13.15 1.387-19.725 2.089-.484.051-.979.007-1.47.007-6.443 0-12.89.129-19.328-.059-2.917-.084-5.825-.747-8.715-1.273-.468-.085-.822-.823-1.228-1.26.482-.276.996-.831 1.441-.78 2.043.238 4.065.649 6.096.988.595.099 1.194.233 1.792.236 4.272.02 8.554.202 12.814-.031 7.69-.422 15.366-1.099 23.048-1.664.349-.026.701.006 1.051-.005 4.284-.141 8.57-.25 12.852-.435 5.838-.251 11.709-.248 17.504-.914 10.598-1.218 21.212-1.185 31.842-1.233 13.809-.064 27.631-.672 41.421-.219 5.963.195 11.947 1.109 17.974 1.122 6.525.013 13.052.408 19.575.35 5.209-.046 10.412-.582 15.621-.793 8.287-.336 16.58-.501 24.863-.896 5.996-.286 11.978-.853 17.97-1.244 3.09-.202 6.188-.257 9.279-.446 6.551-.401 13.103-.801 19.646-1.306 1.625-.125 1.493.544.949 1.54-.162.299-.626.588-.965.604-3.792.182-7.586.31-11.38.452-7.588.285-15.241.056-22.742 1.032-5.171.673-10.285 1.069-15.468 1.125-1.974.021-3.944.34-5.92.394-6.594.178-13.192.243-19.785.456-6.68.216-13.356.545-20.033.844-2.534.114-5.068.416-7.599.394-4.916-.043-9.905.249-14.73-.494-14.164-2.181-28.383-.708-42.775-1.187Z"/><path fill="#fff" d="m266.187 157.893 14.053.468v98.732h-12.693l-1.36-99.2Z"/><path fill="#00160A" d="M266.214 242.876c-.137-1.058-.393-1.906-.394-2.755-.024-16.241.001-32.482-.036-48.723-.006-2.591-.359-5.181-.374-7.773-.051-8.457.014-16.916-.05-25.373-.011-1.527.4-2.057 1.949-2.009 3.497.107 7.001.092 10.499.011 1.974-.045 3.15.531 3.213 3.451.088 4.041.022 8.085.022 12.128v42.527c0 5.043.047 10.086-.011 15.127-.099 8.634-.326 17.267-.355 25.901-.006 2.011-1.397 1.97-2.469 2.077-2.947.293-5.919.39-8.883.454-2.562.054-3.395-1.412-3.184-4.032.208-2.59-.232-5.229-.29-7.849-.021-.981.234-1.969.363-3.162Zm1.236-68.401c0 5.04-.034 10.081.007 15.121.119 14.922.27 29.844.402 44.766.021 2.323.003 4.647.003 6.97 0 4.343.051 8.688-.029 13.03-.026 1.416.342 2.06 1.814 1.914 1.927-.192 3.871-.224 5.795-.446 3.546-.41 3.541-.447 3.541-4.109v-53.372c0-11.427-.01-22.853.018-34.28.003-1.057.216-2.121.403-3.169.358-2.004-.026-2.524-1.996-2.53-2.744-.007-5.489.037-8.232-.016-1.56-.031-2.195.655-2.152 2.218.057 2.043-.039 4.09.028 6.133.08 2.452.261 4.901.398 7.77Z"/><path fill="#fff" d="M231.467 133.92h11.809l1.417 123.173h-13.226V133.92Z"/><path fill="#00160A" d="M231.91 132.716c.905-.212 1.599-.548 2.304-.614 2.827-.264 5.658-.449 8.487-.655 1.323-.096 1.978.815 2.011 2.928.109 7.108.341 14.214.373 21.323.019 4.285-.297 8.571-.358 12.861-.023 1.6.366 3.209.368 4.815.03 16.612-.03 33.225.036 49.836.041 10.071.269 20.141.388 30.211.036 3.067-.848 4.41-2.898 4.437-3.092.042-6.187-.092-9.277.057-1.431.069-1.869-.614-1.876-2.84-.094-30.035-.231-60.07-.399-90.105-.026-4.569-.321-9.134-.381-13.704-.07-5.255-.066-10.516.03-15.769.017-.941.641-1.855 1.192-2.781Zm.825 33.988c0 10.094-.046 20.188.01 30.282.102 18.581.265 37.163.402 55.744.003.423-.113 1.001.023 1.239.311.542.75 1.309 1.127 1.296 2.558-.091 5.112-.417 7.669-.549 1.368-.071 1.995-1.056 1.901-3.094-.099-2.139-.366-4.269-.388-6.408-.167-16.321-.346-32.643-.402-48.965-.023-6.723.346-13.448.356-20.173.008-5.665-.312-11.329-.366-16.996-.069-7.304-.05-14.61.006-21.914.015-1.893-.367-2.699-1.622-2.559-2.347.262-4.699.6-7.048.589-1.428-.006-1.714.891-1.688 2.815.061 4.481.02 8.965.02 13.448v15.245Z"/><path fill="#fff" d="M196.747 200.053h11.809l1.417 57.04h-13.226v-57.04Z"/><path fill="#00160A" d="M210.31 229.402c.141 7.328.288 14.447.419 21.566.029 1.557-.151 3.133.043 4.666.256 2.022-1.311 2.12-2.422 2.175-3.303.167-6.621.119-9.93.029-1.194-.033-2.149-.499-2.109-2.081.093-3.669.058-7.342.025-11.012-.129-14.529-.281-29.058-.415-43.587-.023-2.499.23-2.734 2.711-2.735 2.96-.002 5.92.051 8.877-.021 1.659-.041 2.385.552 2.406 2.254.033 2.591.354 5.18.376 7.77.057 6.922.019 13.844.019 20.976Zm-1.693-11.513c-.141-2.174-.356-4.346-.406-6.523-.07-3.091-.031-6.184-.011-9.277.008-1.356-.616-2.06-1.997-1.985-2.129.114-4.26.424-6.382.364-1.744-.049-2.285.434-2.249 2.207.219 10.775.35 21.552.451 32.329.06 6.3.03 12.602-.006 18.902-.007 1.157.22 2.235 1.497 2.243 2.48.016 4.963-.367 7.44-.327 1.677.028 2.182-.468 2.118-2.119-.223-5.798-.371-11.6-.439-17.401-.071-5.998-.016-11.996-.016-18.413Z"/><path fill="#fff" d="M133.779 247.389c3.499 1.264 6.915 2.345 9.38 5.077 3.728 4.134 4.519 9.015 3.687 14.433-1.245 8.121-5.167 15.12-8.758 22.264-1.115 2.218-2.522 4.287-3.81 6.415-1.613 2.668-3.147 5.215-3.107 8.651.043 3.824-.84 7.65-1.116 11.49-.288 4.007.607 7.815 2.45 11.396.238.462.173 1.083.248 1.63-.492-.32-1.107-.54-1.457-.976-2.423-3.021-3.031-6.74-3.288-10.394-.391-5.579.229-11.155 1.661-16.562.539-2.037 1.563-4.026 2.725-5.796 5.399-8.222 10.006-16.83 12.146-26.521.689-3.117 1.29-6.408.334-9.71-1.458-5.031-5.124-7.606-9.776-8.804-3.441-.885-7.013-1.477-10.556-1.686-6.255-.368-12.551-.085-18.793-.562-5.636-.431-11.394-.085-16.868-2.025-3.588-1.271-5.654-3.862-6.345-7.547-.092-.49.717-1.153 1.11-1.735.442.601 1.197 1.166 1.272 1.811.313 2.693 1.941 4.323 4.234 5.075 2.716.89 5.558 1.763 8.377 1.887 8.343.367 16.708.214 25.051.571 3.68.157 7.328 1.056 11.199 1.618Z"/><path fill="#fff" d="M74.44 263.938c-2.23-.917-3.713-2.337-4.158-4.654-.078-.405.162-.872.256-1.311.474.17 1.095.206 1.391.538.51.572.745 1.387 1.224 1.996 2.51 3.186 6.103 2.623 9.396 2.407 3.475-.228 6.913-1.043 10.365-1.613 5.923-.978 11.844-1.97 17.767-2.949 5.196-.858 10.098-.136 14.509 2.926 3.521 2.444 4.939 6.098 5.226 10.196.651 9.284-1.971 17.97-5.209 26.471-1.63 4.283-2.275 8.664-1.802 13.126.696 6.564 1.714 13.101 5.702 18.674.222.311.472.701.468 1.053-.004.508-.228 1.015-.359 1.522-.393-.239-.919-.385-1.159-.732-3.175-4.587-5.021-9.722-5.945-15.206a98.141 98.141 0 0 1-.838-6.394c-.607-6.001 1.477-11.386 3.628-16.812 1.291-3.257 2.309-6.681 2.961-10.125.63-3.328.898-6.783.837-10.173-.064-3.543-.57-7.246-3.672-9.559-1.724-1.285-3.831-2.311-5.915-2.784-5.135-1.166-10.252-.183-15.352.746-5.905 1.076-11.814 2.236-17.772 2.883-3.767.41-7.627-.051-11.55-.226ZM161.2 215.76h13.227v41.333H161.2z"/><path fill="#00160A" d="M160.375 233.679c0-5.24-.005-10.267.002-15.295.004-3.196 1.081-4.257 4.285-4.257 3.037 0 6.074.049 9.11-.019 1.724-.039 2.313.7 2.308 2.385-.038 12.887-.016 25.775-.025 38.663-.002 2.299-.476 2.75-2.745 2.751-3.46.001-6.921-.026-10.381.013-1.485.016-2.122-.606-2.145-2.111-.108-7.306-.267-14.611-.409-22.13Zm12.929 22.103c.353-.479.991-.95 1.003-1.437.03-1.213-.363-2.434-.34-3.648.053-2.705.359-5.408.377-8.113.054-8.216.007-16.434.031-24.651.004-1.503-.647-2.186-2.136-2.108-2.837.149-5.68.234-8.509.481-.443.039-1.147.763-1.183 1.215-.242 3.004-.451 6.019-.445 9.031.007 3.39.331 6.779.374 10.171.069 5.383.019 10.767.019 16.151 0 3.267-.001 3.264 3.231 2.913.349-.038.706-.015 1.059-.003 2.102.067 4.205.14 6.519-.002Z"/><path fill="#FFB61D" d="M199.717 328.764c-1.805-.189-2.309-1.326-1.559-2.301 2.23-2.899 4.704-5.636 7.152-8.383.331-.372 1.057-.434 1.6-.64-.044.549.06 1.157-.157 1.638-.906 2.015-1.895 3.998-2.881 5.981-.508 1.021-.075 1.089.864.88a3.694 3.694 0 0 1 1.503.004c.441.092.838.376 1.254.575-.195.327-.354.679-.591.976a1790.5 1790.5 0 0 1-7.95 9.892c-.238.293-.62.483-.935.721-.155-.368-.519-.79-.43-1.095.565-1.936 1.26-3.838 1.849-5.767a6.948 6.948 0 0 0 .281-2.481Z"/><path fill="#00160A" d="M208.4 305.04c.595.003 1.084.11 1.573.217-.123.366-.152.813-.385 1.085a800.331 800.331 0 0 1-8.249 9.502c-.315.356-.852.518-1.286.769.048-.564-.091-1.249.18-1.672.783-1.226 1.685-2.385 2.623-3.501 1.783-2.124 3.623-4.2 5.544-6.4ZM188.98 341.275c-1.186.344-1.733.074-.984-1.126 1.221-1.955 2.451-3.911 3.798-5.765.269-.37 1.083-.286 1.646-.411-.149.561-.172 1.218-.47 1.665-1.251 1.877-2.584 3.69-3.99 5.637Z"/><path fill="#fff" d="m300.872 411.531 7.995 21.105 12.227-7.973-3.762-15.477 11.757-7.974 4.232-22.981h35.27l-8.464 51.122-3.292 26.265-1.411 24.857 5.173 5.629 6.584 3.283h8.935l6.113-1.407 11.287-23.92 9.405-24.858 12.698-47.839 7.054-4.221s6.583-20.168 6.583-30.486c0-10.318 4.256-40.963-1.881-62.847-5.11-18.224-22.102-43.15-22.102-43.15l-11.757-12.194 1.881-40.335-37.151-4.69-6.114 16.884s3.292 14.54 8.465 20.168c3.276 3.564 10.346 2.814 10.346 2.814l4.233 20.637-4.233 8.442-10.816 28.14-1.881 23.92-32.919 8.911 13.638 7.974-51.26 7.504s-11.286 5.628-7.524 27.671c3.762 22.044 12.697 42.681 12.697 42.681l7.994 2.345Z"/><path fill="#E7EAEE" d="M411.323 392.708c4.373-2.483 8.317-3.406 11.185-6.872 7.968-10.102 7.687-91.698 4.235-89.859-3.483 1.857-2.984 17.405-2.336 20.661 3.271 16.435-5.543 55.185-6.309 56.818-.701 8.452-11.829 11.741-19.392 15.026-3.926 1.705-9.27 2.199-9.345 4.226-.066 1.765 3.152 3.497 5.419 3.24 5.39-.612 12.163-.754 16.543-3.24ZM374.17 478.635c-1.088 2.886-1.219 5.73-1.343 8.819 1.67.895 3.719 1.425 5.564.895.492-.141 1.002-.215 1.5-.331.618-.144.789-.434 1.256-.85.922-.821 1.824-1.735 2.511-2.773 2.597-3.921 5.018-8.18 6.663-12.629.686-1.855 1.698-3.682 2.661-5.419l.06-.109c.466-.84.68-1.889 1.134-2.773.472-.919.713-1.897.977-2.898.533-2.023 1.557-3.889 2.005-5.957.401-1.849 1.318-3.583 1.814-5.402.523-1.913 1.137-3.79 1.518-5.743.189-.97.638-2.29.349-3.264-.29-.978-1.589.034-2.102.402-2.129 1.528-3.472 3.031-4.439 5.546-1.269 3.301-3.343 6.362-5.773 8.855-2.46 2.523-4.544 5.434-6.594 8.3-2.052 2.87-4.125 5.824-5.564 9.07a76.724 76.724 0 0 0-1.343 3.202c-.386.991-.482 2.072-.854 3.059Z"/><path fill="#fff" d="M304.728 441.917c-8.394 7.809-22.284 19.422-16.509 29.271 4.903 8.363 20.708-6.338 30.189-14.403 8.916-7.584 18.671-20.478 14.622-25.553-5.189-6.505-19.811 2.787-28.302 10.685Z"/><path fill="#00160A" fill-rule="evenodd" d="M353.829 189.569c1.621-1.006 3.204-2.074 4.904-3.226 1.105.121 1.554.427.378 1.169-3.051 1.926-6.103 3.889-7.82 7.247-.22.43-.2.984-.179 1.539.009.256.019.512.004.756.238-.071.482-.131.725-.191.541-.133 1.082-.267 1.556-.524.677-.366 1.322-.791 1.967-1.217.508-.335 1.017-.67 1.541-.976.205-.12.533-.047.827.019l.166.036c.044.009.1.423.013.564-.9 1.469-1.488 3.101-2.078 4.735-1.001 2.776-2.004 5.558-4.538 7.551-1.693 1.332-1.394 4.112.164 5.151.936.624 4.749.271 5.644-.54.163-.148.3-.325.438-.502.063-.081.126-.162.192-.241a3.494 3.494 0 0 1-.321-.213c-.235-.169-.471-.338-.699-.328-.356.015-.713.095-1.068.175-.426.095-.851.19-1.273.174-.474-.019-.942-.202-1.41-.384-.206-.08-.413-.161-.62-.227.077-.207.143-.423.209-.638l.001-.001c.148-.481.295-.962.569-1.353.263-.377.601-.712.936-1.044.462-.458.92-.912 1.174-1.468a153.307 153.307 0 0 0 4.196-10.084c.535-1.429 1.247-2.265 2.782-2.091.57.065 1.145.113 1.722.161 1.573.132 3.15.264 4.621.728 7.364 2.32 12.287 6.571 12.682 15.937.035.822-.073 1.649-.18 2.477a20.407 20.407 0 0 0-.18 1.789c-.012.279.154.565.319.851l.001.001c.076.131.152.262.21.392.119-.063.246-.118.372-.174.283-.125.567-.25.77-.455.264-.266.474-.585.683-.905l.001-.001c.121-.185.242-.369.374-.544.271-.359.527-.738.784-1.117.625-.923 1.252-1.848 2.089-2.492.879-.676 2.41-1.04 3.463-.777 1.046.262 1.463 1.529 1.445 2.913-.03 2.249-.912 3.926-2.205 5.68l-.107.146c-1.187 1.608-2.801 3.796-2.446 5.287.744 3.123 1.884 6.147 3.025 9.175l.001.001c.607 1.612 1.215 3.225 1.764 4.854.248.738.137 2.006-.343 2.524-3.451 3.732-6.981 7.39-10.511 11.047l-.012.013-2.472 2.563c-.179.187-.388.346-.596.505a8.877 8.877 0 0 0-.288.224c-.058-.11-.127-.219-.195-.327-.148-.234-.296-.467-.332-.717-.937-6.484-2.482-12.779-5.424-18.675-.146-.291.232-1.231.492-1.288 3.544-.785 6.808-2.192 9.766-4.299.259-.185.438-.483.618-.781.083-.138.166-.276.257-.403a4.786 4.786 0 0 1-.516-.116c-.378-.1-.757-.199-1.049-.081-.931.376-1.843.802-2.756 1.227-1.319.615-2.637 1.229-4.005 1.694-6.861 2.33-12.342.83-15.753-5.226-1.121-1.99-1.649-4.317-2.177-6.649-.266-1.172-.532-2.346-.874-3.478-.108-.359-.395-.663-.682-.967-.132-.141-.265-.281-.38-.427-.106.177-.249.362-.392.547-.309.4-.618.801-.552 1.123a104.886 104.886 0 0 0 2.026 8.236c1.305 4.502 4.268 7.472 8.586 9.152.565.22 1.361.764 1.412 1.229.151 1.369.196 2.823-.102 4.157-1.193 5.345-4.555 9.426-7.913 13.503l-.795.965-.007.008-.006.007c-2.205 2.675-4.412 5.353-6.464 8.145-1.009 1.374-1.741 3.043-.851 4.874 1.43 2.944 4.526 3.011 7.814 2.374 4.617-.894 8.265-3.637 11.71-6.69.166-.147.378-.24.591-.333.099-.043.197-.086.291-.135.04.136.095.273.15.411.119.3.238.6.203.88-.205 1.658-.437 3.32-.806 4.947a10.87 10.87 0 0 1-1.117 2.907c-.359.634-.787 1.238-1.214 1.841-.694.979-1.385 1.954-1.769 3.044-1.777 5.048-3.42 10.158-4.807 15.329-1.928 7.194-3.753 14.441-2.822 22.03.053.432-.07 1.219-.301 1.301-.536.191-1.078.418-1.623.646l-.008.003c-1.543.644-3.105 1.297-4.606 1.189-2.62-.187-4.921-.016-7.334 1.022-1.605.69-3.344 1.083-5.072 1.474-.377.085-.754.17-1.128.258a74.47 74.47 0 0 1-2.891.602c-1.423.277-2.847.553-4.238.949-.807.229-2.08 1.304-1.987 1.745.222 1.052-.151 1.015-.798.949l-.046-.004c-1.106-.111-2.213-.218-3.32-.325-3.053-.295-6.106-.591-9.15-.957a264.238 264.238 0 0 1-6.268-.856c-1.94-.281-3.88-.562-5.825-.803-1.683-.208-3.373-.357-5.063-.507l-.011-.001-.006-.001a185.4 185.4 0 0 1-3.791-.36c-1.187-.129-2.372-.279-3.558-.429-2.411-.305-4.823-.61-7.243-.735-.913-.047-2.409.914-2.718 1.755-.539 1.468.968 2.166 2.124 2.331 3.791.544 7.606.938 11.419 1.303 4.921.471 9.846.924 14.777 1.265 3.683.254 7.367.47 11.052.686h.004c3.336.195 6.672.39 10.006.615 1.514.101 3.022.273 4.531.445l.009.001c1.165.133 2.33.266 3.498.367 1.133.097 2.3.134 3.415-.037.348-.054.654-.38.96-.707.139-.148.278-.296.421-.418a6.853 6.853 0 0 1-.537-.34c-.385-.261-.771-.522-1.178-.561a350.67 350.67 0 0 0-7.106-.591l-.012-.001c-1.282-.098-2.565-.196-3.846-.301-.24-.02-.474-.117-.707-.213a5.22 5.22 0 0 0-.326-.127c.101-.088.199-.19.296-.293.211-.222.421-.445.673-.512l.492-.132h.001c1.732-.465 3.471-.932 5.235-1.225a73.66 73.66 0 0 1 1.994-.297c2.781-.39 5.556-.778 8.012-2.402.211-.14.478-.271.72-.273l1.596-.015h.011c2.143-.021 4.287-.043 6.426.035 1.049.038 2.766 2.483 2.613 3.543-.228 1.583-.479 3.169-.862 4.718-.132.533-.618 1.284-1.062 1.382-.759.168-1.519.345-2.279.522l-.016.003-.01.002-.002.001c-2.837.66-5.682 1.321-8.556 1.546-2.297.179-4.617.037-6.94-.105-1.329-.082-2.66-.164-3.987-.185-.417-.006-.837.239-1.258.484a6.657 6.657 0 0 1-.582.316c.196.133.388.296.58.459.419.354.838.709 1.292.762 1.239.144 2.487.204 3.736.265 1.141.055 2.282.11 3.417.229 2.692.283 5.345-.11 7.998-.503 2.954-.438 5.908-.875 8.916-.38 1.037.17 2.09.261 3.141.352 1.431.124 2.861.248 4.246.571l.607.142c6.945 1.624 13.873 3.245 21.072 3.2 2.287-.014 3.23.963 3.242 3.276.008 1.496.021 2.994.034 4.491v.01c.046 5.15.091 10.302-.072 15.446-.099 3.116-.378 6.226-.656 9.336-.199 2.21-.397 4.421-.531 6.634-.367 6.081-.613 12.17-.815 18.258-.027.787.305 1.827.849 2.351 2.477 2.386 5.618 3.466 8.881 2.696l.845-.198c5.139-1.208 10.314-2.424 15.016-5.042.388-.216.862-.277 1.335-.337.22-.028.439-.056.65-.1l-.237.457-.001.003c-.187.358-.373.716-.555 1.075-.04.079-.083.157-.126.235-.118.211-.235.423-.286.649-.452 2.029-.88 4.064-1.308 6.1-.905 4.305-1.811 8.611-2.946 12.854-2.248 8.403-4.777 16.734-7.387 25.032-.635 2.02-1.429 3.99-2.223 5.96-.886 2.202-1.773 4.403-2.438 6.671-3.315 11.309-8.741 21.613-14.283 31.89-2.083 3.861-5.476 4.964-9.421 4.867-1.954-.047-3.905-.334-5.851-.619a218.21 218.21 0 0 0-1.346-.195c-4.858-.681-9.992-4.147-9.815-10.181.096-3.297.172-6.594.248-9.892v-.009c.061-2.632.121-5.264.192-7.896.007-.247.088-.49.169-.735.066-.198.132-.398.159-.601.147-1.108.298-2.216.448-3.324l.001-.001c.457-3.368.915-6.736 1.278-10.114.124-1.152.148-2.318.171-3.483.032-1.54.063-3.078.326-4.577.971-5.547 2.055-11.074 3.14-16.602l.002-.012c.475-2.421.95-4.842 1.416-7.265.331-1.723.666-3.445 1.002-5.167.948-4.866 1.897-9.733 2.741-14.618.514-2.972.881-5.969 1.247-8.967.149-1.217.298-2.434.457-3.649.068-.522.116-1.048.163-1.573l.001-.007c.087-.96.174-1.918.384-2.849.393-1.741.847-3.468 1.301-5.196.297-1.132.595-2.265.876-3.401.051-.208-.023-.447-.097-.687-.034-.111-.068-.222-.09-.33a3.624 3.624 0 0 1-.291.122c-.22.085-.44.17-.582.327l-.025.027c-.393.432-.82.902-1.005 1.437-.682 1.974-1.359 3.959-1.858 5.986-.344 1.4-.986 2.259-2.442 2.448-.627.081-1.252.166-1.877.252h-.003l-.003.001c-3.166.434-6.317.866-9.583.678-3.203-.184-6.427-.007-9.649.17-1.195.065-2.39.131-3.584.178-.409.016-.815.104-1.222.191-.443.095-.885.19-1.329.192-.289.002-.582.009-.876.015-1.308.031-2.643.061-3.798-.364-.4-.147-.531-1.032-.663-1.923-.062-.418-.124-.838-.215-1.183a.692.692 0 0 0-.138-.235c-.025-.032-.051-.065-.073-.099l-.8-1.199-.323-.485c-.079.202-.176.403-.273.604-.213.441-.425.882-.448 1.332-.098 1.922-.154 3.862-.011 5.778.259 3.482-.564 6.768-1.388 10.057a99.578 99.578 0 0 0-.768 3.218c-.371 1.735-1.443 2.105-2.955 1.846-3.86-.659-7.705-1.266-11.638-.441-1.193.25-2.407.423-3.62.596-2.013.287-4.022.573-5.92 1.209-3.656 1.224-7.249 2.869-10.541 4.878-1.648 1.006-2.101.922-2.713-.65-.616-1.584-1.249-3.162-1.881-4.741-1.473-3.677-2.946-7.354-4.218-11.102-.634-1.869-.964-3.84-1.295-5.814-.187-1.116-.374-2.233-.616-3.332-.16-.725-.322-1.45-.484-2.175v-.002c-1.687-7.543-3.367-15.053-2.36-22.967.675-5.298 3.656-9.17 8.406-10.865 7.061-2.521 14.415-3.651 21.764-4.781l.024-.004 1.701-.262c3.242-.502 6.496-.924 9.75-1.345l.011-.001.002-.001c2.044-.264 4.087-.529 6.128-.813.223-.031.425-.223.627-.414.094-.089.187-.178.283-.251a4.072 4.072 0 0 1-.263-.372c-.189-.288-.378-.577-.579-.586l-.671-.033c-1.664-.082-3.341-.165-4.98.028-3.015.354-6.014.841-9.012 1.328a834.683 834.683 0 0 1-4.316.691c-3.037.478-6.075.957-9.088 1.559-1.9.38-3.78.86-5.66 1.34h-.001c-1.287.329-2.574.657-3.868.954-5.024 1.152-8.813 3.901-11.292 8.507-1.282 2.381-1.43 4.938-1.384 7.523.054 2.974.172 5.953.427 8.915.207 2.406.588 4.804 1.017 7.182.36 1.991.773 3.972 1.186 5.953.237 1.134.473 2.268.7 3.404.154.771.275 1.554.396 2.336.246 1.597.493 3.192 1.018 4.689 1.011 2.882 2.166 5.712 3.32 8.543a321.887 321.887 0 0 1 1.965 4.892c.277.713.601 1.412.925 2.11.984 2.122 1.969 4.247 1.65 6.78-.053.422.281.913.592 1.372.084.125.167.247.241.365 1.452 2.343 3.829 2.475 6.105 2.601.249.014.497.027.742.044 1.423.096 2.152.683 2.58 1.825a337.865 337.865 0 0 1 1.843 5.078c.556 1.554 1.111 3.108 1.686 4.655.497 1.337 1.017 2.664 1.537 3.992.594 1.52 1.189 3.039 1.75 4.572.558 1.525 1.294 1.715 2.645.846 1.635-1.052 3.289-2.074 4.943-3.096l.003-.003c1.967-1.216 3.935-2.431 5.87-3.697.491-.321.927-1.363.79-1.922-.566-2.311-1.225-4.599-1.885-6.886l-.001-.003-.001-.002c-.265-.921-.531-1.842-.791-2.764-.147-.525-.327-1.05-.507-1.576-.427-1.245-.854-2.492-.853-3.737 0-1.458 1.079-1.834 2.192-2.223.746-.26 1.508-.526 1.969-1.128.204-.267.576-.399.952-.533.205-.073.412-.146.593-.242 3.331-1.765 6.234-3.84 6.762-8.064.273-2.178.845-4.3 1.418-6.424.871-3.23 1.742-6.462 1.561-9.892-.015-.268.447-.788.718-.811 2.382-.201 4.77-.4 7.159-.439 1.744-.029 3.49-.015 5.235-.002h.004c2.375.018 4.751.037 7.123-.051 1.189-.043 2.383.006 3.578.055 2.767.114 5.539.227 8.252-.81.621-.238 2.117-.695 1.849 1.143a696.735 696.735 0 0 0-.674 4.785v.001c-.452 3.262-.904 6.524-1.449 9.77-.568 3.387-1.236 6.758-1.904 10.128v.002l-.005.025c-.273 1.379-.546 2.757-.813 4.137-.221 1.145-.446 2.289-.671 3.433a494.018 494.018 0 0 0-1.185 6.151l-.115.621c-.554 3.007-1.108 6.016-1.554 9.04a798.036 798.036 0 0 0-2.096 15.406c-.094.738-.119 1.49-.145 2.24-.038 1.113-.075 2.223-.336 3.28-1.25 5.065-1.772 10.174-1.645 15.382.049 2.015.038 4.032.027 6.048a295.06 295.06 0 0 0-.004 4.101c.005.624-.024 1.261-.053 1.899-.072 1.597-.145 3.202.315 4.625 1.486 4.598 5.288 6.964 9.697 8.041 3.721.909 7.536 1.395 11.45.97 3.089-.336 5.732-1.516 7.328-4.016 2.491-3.901 4.775-7.986 6.681-12.207 3.13-6.93 6.011-13.982 8.757-21.076 1.201-3.103 2.216-6.279 3.231-9.456l.008-.023c.532-1.665 1.064-3.33 1.623-4.984a455.427 455.427 0 0 1 1.708-4.929l.001-.003c.956-2.724 1.912-5.449 2.78-8.202 1.143-3.623 2.116-7.306 3.032-10.997 1.286-5.183 2.479-10.391 3.648-15.603.09-.405.195-.816.301-1.23.386-1.513.781-3.061.526-4.467-.268-1.484.278-1.79 1.148-2.172.302-.133.607-.262.912-.392 2.543-1.08 5.076-2.157 6.185-5.107.141-.377.285-.752.429-1.128l.001-.004c.531-1.388 1.063-2.777 1.48-4.2.194-.661.395-1.321.596-1.982.757-2.487 1.516-4.981 1.907-7.529.693-4.504 1.064-9.076 1.288-13.633.297-6.019.377-12.052.43-18.08.015-1.651-.098-3.302-.211-4.954-.067-.993-.135-1.986-.175-2.979-.097-2.389-.176-4.78-.256-7.171v-.007c-.162-4.893-.325-9.787-.635-14.67-.309-4.858-.844-9.726-1.683-14.518-1.202-6.854-2.97-13.597-6.245-19.787l-.881-1.666c-2.947-5.58-5.9-11.171-9.263-16.491-2.202-3.482-5.037-6.701-8.117-9.428-.935-.829-1.922-1.599-2.91-2.37-1.957-1.527-3.917-3.057-5.481-5.042a2.512 2.512 0 0 1-.494-1.432c-.003-.196.607-.557.955-.579 3.977-.254 7.033-2.444 9.604-5.145 4.581-4.811 7.619-10.497 9.133-17.107.081-.356.164-.712.247-1.067l.001-.003c.944-4.059 1.874-8.057.916-12.236-1.59-6.94-4.916-13.052-9.824-18.065-7.562-7.724-16.847-10.025-27.311-7.685-.425.095-.911.042-1.345-.051-.409-.087-.815-.212-1.221-.336-.737-.225-1.47-.449-2.207-.451-2.666-.005-5.368.013-7.989.441-2.205.36-4.359 1.093-6.495 1.821h-.001l-.804.273c-.399.135-.713.527-1.026.92-.144.18-.289.36-.441.516.213.066.43.156.646.246.474.197.948.394 1.393.342 1.044-.122 2.076-.341 3.109-.56a53.315 53.315 0 0 1 1.934-.386c.284-.05.585.002.887.054.138.024.277.048.414.062-.102.137-.194.289-.287.442-.201.332-.402.663-.696.829a38.81 38.81 0 0 1-2.189 1.119c-1.196.58-2.39 1.16-3.461 1.919-.379.27-.772.53-1.165.79-1.75 1.159-3.528 2.337-4.359 4.47-.091.236-.085.511-.078.786.003.128.006.255-.001.379.122-.017.252-.023.381-.029.279-.012.559-.024.768-.153Zm45.273 58.895c-3.395 4.291-6.494 8.8-8.2 14.109-4.19 7.797-5.609 15.931-4.986 24.41.207 2.82.621 5.624 1.035 8.429l.001.004c.206 1.396.412 2.792.593 4.189.117.909.222 1.82.327 2.731v.001c.166 1.44.332 2.88.547 4.312.051.339.294.648.536.957.112.143.223.285.316.431.127-.181.287-.361.448-.541.35-.393.7-.787.702-1.182.009-1.908-.182-3.825-.419-5.723-.138-1.1-.318-2.195-.497-3.29-.267-1.622-.533-3.244-.662-4.877-.289-3.665-.404-7.35-.436-11.027-.051-5.82 1.469-11.312 3.761-16.602.21-.486.418-.973.626-1.46l.001-.001v-.001c.944-2.207 1.89-4.419 3.04-6.513 1.272-2.317 2.822-4.499 4.428-6.602 1.467-1.922 2.386-1.947 3.869-.045l.672.859c2.631 3.363 5.249 6.708 7.139 10.66 1.455 3.044 3.112 5.988 4.769 8.933l.002.003c1.518 2.698 3.037 5.398 4.401 8.174 1.045 2.127 1.576 4.53 2.1 6.905.116.527.232 1.052.353 1.572.841 3.615 1.534 7.267 2.205 10.919.13.708.268 1.416.407 2.125v.003c.49 2.515.982 5.036 1.126 7.573.213 3.733.274 7.475.335 11.218v.009c.04 2.4.079 4.8.158 7.198.078 2.35.209 4.701.339 7.051l.001.001c.239 4.301.478 8.599.392 12.893-.065 3.263-.418 6.52-.77 9.777-.316 2.919-.632 5.84-.741 8.766-.165 4.421-1.406 8.557-2.644 12.684-.471 1.571-.941 3.14-1.352 4.724-.587 2.261-2.199 4.454-5.07 5.455-1.876.654-3.654 1.597-5.431 2.539l-.002.001c-1.727.915-3.454 1.83-5.273 2.483-2.422.869-5.019 1.261-7.605 1.651-.754.114-1.508.228-2.256.354-1.179.197-2.504.319-3.612-.023-3.343-1.03-3.8-1.692-3.693-5.191.218-7.144.499-14.286.836-21.425.108-2.269.28-4.535.452-6.801.129-1.704.258-3.407.36-5.113l.099-1.592v-.003c.167-2.651.334-5.305.283-7.953-.051-2.707-.424-5.419-.816-8.104-.377-2.588.65-3.357 3.283-2.913 5.797.977 11.499.433 16.639-2.644 3.246-1.943 4.507-5.471 5.171-8.963.334-1.757.425-3.561.516-5.365.085-1.692.17-3.385.456-5.042 1.243-7.196 1.261-14.432 1.186-21.682-.021-1.987-.206-3.978-.437-5.952-.045-.38-.293-.736-.541-1.092l-.001-.001a6.54 6.54 0 0 1-.321-.491 5.878 5.878 0 0 1-.424.468c-.33.342-.661.683-.719 1.066-.144.95-.108 1.93-.072 2.905v.005c.009.226.017.451.023.676.04 1.487.107 2.974.174 4.461.147 3.25.294 6.499.159 9.737-.095 2.271-.489 4.527-.884 6.786-.254 1.45-.507 2.902-.682 4.36-.144 1.204-.188 2.421-.231 3.638-.045 1.268-.091 2.537-.25 3.79-.472 3.707-1.733 7.28-5.071 9.168-2.142 1.211-4.861 1.845-7.337 1.894-3.119.062-6.244-.191-9.369-.443a230.702 230.702 0 0 0-3.973-.298c-.742-.046-1.486-.077-2.229-.109h-.004c-1.577-.066-3.156-.132-4.714-.345-2.957-.403-5.904-.89-8.85-1.377a628.022 628.022 0 0 0-4.325-.704c-.745-.118-1.49-.248-2.236-.377l-.011-.002c-2.007-.347-4.015-.696-6.036-.829-1.791-.119-1.71-1.164-1.52-2.235.12-.677.333-1.339.547-2 .252-.781.503-1.561.599-2.361.23-1.927-.259-3.714-2.034-4.892-1.231-.817-1.266-1.051.153-1.647 1.429-.6 2.981-1.216 4.493-1.25 6.143-.139 12.3-.266 18.434.013 3.332.152 6.649.678 9.962 1.204.987.156 1.974.313 2.96.459.324.048.607.337.897.631.17.173.342.348.526.477.298.211.765.527.98.424.285-.137.573-.645.559-.981-.107-2.544-.23-5.09-.467-7.624-.068-.718-.213-1.429-.358-2.14-.162-.797-.325-1.594-.377-2.399-.149-2.282-.231-4.568-.313-6.854l-.001-.008c-.042-1.177-.084-2.355-.135-3.532a85.767 85.767 0 0 0-.185-2.809c-.151-1.97-.302-3.941-.164-5.89.197-2.786.644-5.553 1.091-8.32.165-1.018.329-2.035.481-3.052.06-.403.114-.808.167-1.214v-.002c.175-1.322.351-2.65.752-3.899.758-2.358 2.003-4.549 4.781-4.811.826-.077 1.673.111 2.523.299.49.109.981.218 1.47.277.555.067 1.118.063 1.682.059.253-.002.506-.004.758.001-.172-.231-.33-.503-.488-.774-.342-.588-.684-1.175-1.171-1.351-4.168-1.497-8.321-1.224-10.386 3.742-1.124 2.7-2.085 5.569-2.489 8.452-.114.813-.234 1.627-.354 2.44-.678 4.609-1.359 9.231-.993 13.938.235 3.014.437 6.031.639 9.048.207 3.081.413 6.162.654 9.24.075.953.259 1.896.444 2.841.123.628.246 1.257.336 1.89.018.121-.507.498-.7.448-.809-.211-1.613-.481-2.416-.75-1.573-.527-3.143-1.053-4.737-1.137-7.193-.379-14.411-.546-21.611-.401-2.205.045-2.393-.443-2.405-2.369-.049-8.157 2.029-15.841 4.75-23.407a.834.834 0 0 1 .165-.235c.083-.094.16-.181.145-.257a23.405 23.405 0 0 0-.387-1.556c-.049-.181-.099-.361-.146-.542-.125.154-.268.303-.411.452-.308.32-.617.641-.746 1.024-.326.968-.668 1.934-1.009 2.9-1.011 2.859-2.024 5.721-2.645 8.665-.647 3.069-.976 6.206-1.305 9.344v.003c-.144 1.368-.287 2.737-.457 4.099-.026.206-.015.441-.004.677.034.761.069 1.537-1.111 1.406-.403-.045-1.02-1.507-.922-2.235.135-1.01.266-2.021.397-3.034.576-4.441 1.152-8.89 2.139-13.241 1.089-4.803 2.557-9.522 4.024-14.235l.006-.021c.322-1.032.643-2.065.96-3.098.27-.878.794-1.678 1.317-2.476v-.001l.001-.001c.205-.313.411-.626.6-.944a436.41 436.41 0 0 1 2.578-4.249l.495-.809c.29-.475.587-.946.884-1.417l.407-.648c.127.222.273.44.418.657.32.48.641.96.766 1.487.18.752.289 1.524.397 2.294.135.956.269 1.91.538 2.825.269.914 1.046 2.214 1.751 2.324.925.145 2.389-.418 2.956-1.181 3.524-4.74 6.949-9.554 10.375-14.369.905-1.273 1.811-2.546 2.719-3.818.227-.318.471-.662.557-1.03.049-.208-.009-.441-.068-.675a3.98 3.98 0 0 1-.069-.308 2.895 2.895 0 0 1-.294.095c-.218.063-.436.125-.554.271l-.32.397c-1.673 2.074-3.346 4.149-4.947 6.278-1.825 2.427-3.623 4.874-5.421 7.321-.936 1.275-1.873 2.549-2.813 3.821a2.113 2.113 0 0 1-.269.283c-.111.103-.221.205-.3.328-.197.302-.37.62-.543.938l-.217.396c-.097-.204-.221-.407-.344-.611-.268-.443-.536-.886-.534-1.329.008-2.537-.434-4.936-1.742-7.11a6.705 6.705 0 0 1-.247-.473c-.368-.751-.766-1.563-2.018-1.019-.055.024-.566-.67-.627-1.066-.371-2.417.559-3.781 2.655-5.224 3.026-2.083 6.054-4.235 8.748-6.725 2.22-2.051 4.276-4.284 6.331-6.517.955-1.037 1.909-2.074 2.88-3.093.095-.099.18-.204.261-.304.404-.499.695-.859 1.477.373.796 1.254 2.001 2.244 3.206 3.234.517.425 1.035.851 1.521 1.297l.015.015c.795.731 1.362 1.252.363 2.514Zm-88.599 148.672.344-.076c.699.193 1.467.505 1.634 1.017 1.469 4.52 2.863 9.065 4.257 13.609l.467 1.52c.167.545.336 1.09.506 1.634.644 2.075 1.289 4.15 1.827 6.253.375 1.466.257 2.705-1.359 3.794-1.691 1.138-3.241 2.486-4.793 3.834-.846.735-1.692 1.471-2.562 2.173-1.029.831-1.348-.148-1.546-.755a8.68 8.68 0 0 0-.065-.194c-.932-2.57-1.747-5.186-2.546-7.803-.13-.427-.315-.909-.503-1.399-.503-1.31-1.028-2.679-.591-3.203.922-1.107 2.333-1.8 3.743-2.493.562-.276 1.125-.552 1.655-.854.124-.071.26-.121.396-.171.17-.063.34-.126.483-.228.355-.252.689-.532 1.024-.812.138-.116.277-.232.417-.346a7.495 7.495 0 0 1-.759-.382c-.566-.31-1.132-.62-1.497-.461-1.778.774-3.546 1.728-5.044 2.954-1.224 1.003-1.765.904-2.268-.478l-.201-.553c-1.443-3.97-2.886-7.94-4.291-11.924-.055-.158.278-.54.51-.704 3.238-2.289 7.001-3.12 10.762-3.952Zm6.662 8.035c-.062-.406-.124-.818-.45-.921-.327-1.189-.674-2.214-1.002-3.185a64.719 64.719 0 0 1-.599-1.831c-.64-2.096-.083-2.904 2.07-2.785 2.163.12 4.323.304 6.483.488 1.34.114 2.68.228 4.022.326 1.262.093.877.709.482 1.342l-.004.007c-2.051 3.285-5.296 4.959-8.529 6.627-.397.205-.794.41-1.189.617-1.093.576-1.188-.049-1.284-.685Zm-23.313 3.144c-.972-1.282-1.449-2.353-.189-3.642 1.411-1.001 2.595-1.821 3.827-2.557.196-.117.47-.099.744-.081.126.009.253.017.371.012-.028.091-.067.184-.106.277-.084.202-.169.403-.14.586.063.401.118.807.172 1.212.165 1.227.331 2.458.744 3.595.501 1.377.086 1.796-1.114 1.802-.244.001-.491.012-.736.023-1.285.057-2.558.113-3.573-1.227Z" clip-rule="evenodd"/><path fill="#00160A" d="m357.642 538.043 1.301-.046a52.883 52.883 0 0 1 4.837-.307c1.871-.025 3.404-.709 4.044-2.522a681.854 681.854 0 0 0 5.444-16.109c.078-.238.221-.479.367-.724.414-.696.849-1.427-.148-2.224-.195.27-.409.531-.622.793-.466.573-.932 1.146-1.208 1.8-1.214 2.873-2.392 5.774-3.339 8.744-.508 1.593-1.601 2.047-2.907 2.166-2.656.242-5.331.482-7.991.422-8.892-.2-17.785-.448-26.67-.857-3.471-.16-5.888-3.231-5.147-6.663.213-.983 1.333-1.989 2.291-2.481.3-.154.954.368 1.575.864.229.183.453.362.653.502.219.153.418.335.617.517.204.186.407.373.632.528.703.486 1.222.398 1.268-.589.067-1.43-2.412-4.001-3.857-4.059-3.973-.159-5.281 2.542-5.753 5.757-.473 3.227 3.164 7.461 7.439 7.772 2.592.188 5.188.35 7.785.42 6.574.176 13.148.352 19.723.407 1.703.014 3.406-.09 5.109-.195h.005l.024-.002c1.092-.067 2.184-.134 3.277-.169.225-.008.456.169.687.346.107.082.215.164.321.227-.284.332-.551.724-.818 1.116-.592.868-1.184 1.736-1.957 1.955-1.751.497-3.651.511-5.527.524-.393.003-.785.006-1.174.014-3.629.068-7.265.128-10.89-.012-.52-.02-1.041-.038-1.563-.057-3.358-.117-6.735-.235-10.015-.835-4.524-.827-9.002-1.908-13.48-2.99l-.006-.001-.006-.002-.006-.001c-1.628-.393-3.255-.786-4.884-1.167l-.23-.053c-1.626-.376-3.452-.798-3.817-2.648-.288-1.455.744-2.326 1.758-3.182.338-.285.674-.569.958-.871.017-.018.055-.013.096-.007.039.006.08.012.107-.001.467-.226.935-.451 1.403-.675l.002-.001.001-.001h.002a155.123 155.123 0 0 0 4.518-2.231c.302-.157.534-.454.765-.75.107-.137.214-.273.327-.396-.151-.063-.311-.154-.471-.244-.345-.196-.69-.391-.946-.308l-.293.096c-3.285 1.07-6.625 2.159-8.919 4.965-2.43 2.972-1.668 6.5 1.612 7.55 2.352.753 4.735 1.405 7.119 2.056l.005.001.001.001h.002c1.628.445 3.256.89 4.875 1.368 5.948 1.754 12.051 1.991 18.151 2.228 1.914.074 3.827.149 5.735.27 2.571.163 5.159.068 7.808-.029ZM303.618 438.612a259.69 259.69 0 0 1-3.138 2.967c-2.364 2.211-4.692 4.387-6.806 6.758-2.469 2.768-4.556 5.926-6.502 9.104-.578.944-.719 2.17-.859 3.38-.048.42-.096.839-.163 1.243-.035.216.119.465.274.713.071.114.143.229.195.34.08-.095.169-.186.259-.277.195-.198.389-.396.48-.635a17.1 17.1 0 0 0 .448-1.43c.241-.853.482-1.703.931-2.423.25-.4.498-.805.747-1.211 1.328-2.169 2.677-4.371 4.452-6.099 4.804-4.679 9.773-9.186 14.741-13.693l.012-.011.007-.007.003-.002.014-.013c1.396-1.267 2.793-2.533 4.185-3.804.271-.246.654-.366 1.038-.486.179-.055.357-.111.524-.179a6.367 6.367 0 0 0-.088.682c-.047.508-.095 1.017-.37 1.296-2.189 2.21-4.415 4.397-6.782 6.409-4.965 4.221-9.751 8.566-13.611 13.92-2.075 2.879-3.57 5.931-4.697 9.258-.749 2.211-.014 4.192.704 6.127l.002.006.002.005.099.267c.49 1.328 3.546 1.779 5.613 1.105 5.298-1.729 9.819-4.869 13.837-8.575 5.294-4.883 10.414-9.999 15.207-15.379 2.269-2.546 4.118-5.481 5.961-8.406.539-.857 1.078-1.712 1.627-2.557.302-.465.387-1.068.473-1.678.057-.405.115-.813.237-1.187.082-.253.33-.449.578-.646.113-.09.226-.18.324-.275.078.116.173.23.267.344.205.245.409.491.449.761.354 2.394-.383 4.52-1.783 6.425-3.894 5.293-7.893 10.48-12.705 15.001-1.593 1.496-3.07 3.116-4.548 4.736-1.09 1.196-2.181 2.391-3.318 3.538-4.894 4.933-10.854 8.125-17.389 10.169-3.058.957-5.992-1.045-7.198-4.232-.284-.752-.669-1.465-1.053-2.178-.36-.668-.72-1.336-.999-2.037-1.957-4.924-.536-9.104 2.406-13.304 4.689-6.695 10.802-11.834 16.94-16.994l.242-.204c.379-.318.927-.494 1.423-.583.309-.056.818.082.962.31.131.206.001.792-.211.969-.691.576-1.409 1.12-2.158 1.688l-.001.001-.001.001c-.418.316-.846.641-1.283.982Z"/><path fill="#00160A" fill-rule="evenodd" d="M370.778 516.605a723.079 723.079 0 0 0 3.359-12.336c1.369-3.368 1.914-6.692 2.153-10.111.012-.178.052-.365.091-.546.12-.558.228-1.061-.52-1.084-.559-.017-1.44.884-1.659 1.546-.18.541-.216 1.134-.251 1.725-.039.643-.078 1.285-.302 1.855-.362.919-1.172 1.915-2.041 2.329-3.083 1.47-6.134.878-8.964-.823-.528-.318-1.103-1.252-1.013-1.793.148-.899.399-1.78.65-2.661.253-.888.505-1.775.653-2.679.073-.447-.197-.95-.467-1.453a7.441 7.441 0 0 1-.337-.684 6.987 6.987 0 0 1-.488.463c-.374.334-.748.668-.87 1.078-.244.822-.393 1.672-.543 2.523-.127.72-.255 1.441-.439 2.147-.29 1.109-.602 2.214-.913 3.319v.001c-1.128 4-2.255 7.997-2.369 12.224-.042 1.576-2.354 3.362-3.979 3.139-.3-.041-.802-1.121-.695-1.236.397-.43.855-.801 1.313-1.174.321-.261.642-.522.943-.804.327-.305.606-.739.711-1.164.032-.128-.573-.55-.927-.618-2.183-.415-5.42 3.182-4.816 5.33a136.49 136.49 0 0 0 1.1 3.647l.091.293c.12.384.257.763.395 1.141.062.173.125.345.186.518.114-.164.238-.324.362-.484.27-.348.539-.697.714-1.089.923-2.07 4.366-3.399 5.817-1.965 2.66 2.63 5.919 2.58 9.114 2.209 1.504-.174 3.385-.811 3.941-2.783Zm-12.442-3.236c.035-.217.07-.434.083-.641.769-3.354 1.36-6.49 1.873-9.64.26-1.602.891-1.864 2.43-1.31 2.669.961 5.403 1.923 8.331.836.285-.105.653.019 1.021.143.171.058.341.115.503.15-.03.139-.058.279-.086.419-.061.3-.121.602-.199.898-.251.963-.51 1.924-.769 2.885-.542 2.012-1.084 4.025-1.558 6.054-.591 2.528-2.267 4.253-4.785 4.64-2.058.316-6.181-1.468-6.845-3.106-.154-.379-.077-.853.001-1.328Z" clip-rule="evenodd"/><path fill="#00160A" d="m393.172 434.02.001-.002.002-.004c.813-1.929 1.617-3.837 2.457-5.727.239-.538.771-.96 1.276-1.361.105-.083.208-.165.308-.247.166-.136.705-.105.81.042.181.252.312.727.194.983-2.136 4.663-4.28 9.323-6.498 13.947-.732 1.526-2.032 2.312-3.781 2.14-.715-.07-1.43-.137-2.145-.204h-.003l-.01-.001c-2.094-.196-4.188-.391-6.269-.678-.859-.118-1.744-.572-2.453-1.097-.358-.266-.588-.708-.818-1.149-.103-.197-.205-.394-.319-.576.241 0 .497-.028.753-.057.554-.061 1.109-.122 1.512.099 3.317 1.821 6.914 1.73 10.436 1.414.609-.055 1.151-.868 1.723-1.726.278-.418.564-.847.868-1.204a414.118 414.118 0 0 0 1.956-4.592ZM286.321 361.315c.489 2.893.982 5.786 1.579 8.784.232.951.42 1.895.606 2.826.291 1.455.576 2.881 1.01 4.259.937 2.971 2.141 5.862 3.358 8.732.14.329.584.526 1.028.723.205.091.41.182.585.286.002-.204.021-.415.04-.626.042-.467.084-.933-.064-1.327-.185-.497-.458-.967-.73-1.435-.359-.619-.717-1.235-.866-1.903-.857-3.822-1.672-7.653-2.486-11.485-.726-3.412-1.452-6.826-2.207-10.231-.11-.495-.481-.93-.853-1.365-.173-.202-.346-.404-.492-.612-.07.196-.148.391-.225.586-.183.46-.365.92-.457 1.398-.061.316.017.661.094 1.004.029.129.058.258.08.386ZM379.585 423.492c-.832-.347-1.455-.693-2.079-1.04.189-.069.379-.161.57-.254.413-.2.826-.4 1.213-.358 1.238.134 2.471.32 3.704.505l.002.001c1.862.28 3.724.56 5.596.663 2.126.116 4.259.071 6.393.025h.009c1.398-.029 2.797-.059 4.193-.044.496.006.989.212 1.483.419.227.095.455.19.682.265-.163.115-.326.26-.488.405-.351.314-.702.627-1.059.634l-.865.018h-.003c-3.909.081-7.825.163-11.726-.025-1.631-.079-3.252-.395-4.931-.723h-.002c-.878-.171-1.772-.346-2.692-.491ZM341.717 342.382c-.361-.028-.73-.056-1.111-.089l-.516.002a19.48 19.48 0 0 1-.739-.004c-1.132-.034-2.264-.07-3.396-.106h-.005a1341.81 1341.81 0 0 0-10.224-.295c-.426-.01-.907.186-1.277.423-.275.177-.501.432-.727.687a9.494 9.494 0 0 1-.3.328c.147.069.293.157.44.244.315.188.63.377.951.385 6.631.181 13.263.319 19.896.429.305.006.611-.127.918-.26.143-.062.285-.124.428-.172a4.879 4.879 0 0 1-.311-.445c-.221-.343-.443-.687-.722-.742-1.054-.21-2.133-.294-3.305-.385ZM361.402 467.113l.002-.012c.46-3.671.905-7.217 1.474-10.743.077-.474.512-.89.946-1.305.201-.192.402-.384.568-.582.055.222.137.45.219.678.176.49.352.981.264 1.418-1.362 6.757-2.201 13.557-2.092 20.468.005.323-.237.651-.478.979a5.1 5.1 0 0 0-.313.457 6.903 6.903 0 0 0-.469-.589c-.366-.428-.733-.855-.736-1.286-.011-1.683.1-3.366.215-5.122.049-.754.1-1.521.142-2.307l.258-2.054ZM406.857 403.331c-.1.538-.203 1.091-.342 1.659-.055.347-.06.669-.065.975-.005.283-.01.552-.052.815-.178 1.094-.372 2.186-.565 3.277v.003c-.387 2.184-.774 4.368-1.036 6.567-.021.181-.065.383-.11.593-.199.917-.434 2.006.958 2.328.17.04.938-1.811 1.154-2.843.625-2.989 1.134-6.002 1.64-9.014.343-2.046.665-4.099.854-6.162.025-.275-.26-.578-.544-.88-.131-.14-.263-.28-.363-.417-.119.117-.258.228-.397.339-.305.243-.61.487-.7.794-.185.636-.306 1.29-.432 1.966ZM319.544 429.73c3.526-2.037 7.168-2.013 10.811-1.101.671.168 1.254.691 1.837 1.215.267.24.535.48.811.686-.309.016-.623.054-.937.092-.681.084-1.362.167-1.991.022-4.269-.988-8.112-.113-11.686 2.342-.319.219-.702.346-1.084.472a9.847 9.847 0 0 0-.525.184 8.195 8.195 0 0 0-.226-.511c-.182-.39-.364-.779-.274-.86.684-.613 1.424-1.163 2.204-1.743l.001-.001.001-.001.001-.001h.001c.345-.257.697-.519 1.056-.795ZM362.152 222.621c-.618.229-.548-.418-.591.713-.097 2.512 10.797-2.715 10.797-4.221 0-.938-.469-.469-.757-.27-2.998 2.615-6.525 4.117-9.449 3.778ZM345.741 518.543c-.143-.212-.286-.416-.424-.614-.439-.628-.842-1.205-1.121-1.838-.243-.552-.441-1.619-.196-1.793.539-.384 1.534-.68 2.053-.421 1.516.755 2.887 6.684 1.92 8.033-.147.205-1.352.046-1.435-.181-.213-.58-.343-1.191-.479-1.83-.094-.439-.19-.892-.318-1.356ZM338.902 518.64c.286.53.583 1.083.866 1.7.033.187.061.366.087.536.083.542.153.999.36 1.38.208.384.521.71.833 1.036.137.142.273.284.401.431.131-.153.286-.3.442-.447.34-.322.679-.644.764-1.024.375-1.672-1.169-5.621-2.909-6.721-.287-.181-.744-.088-1.201.005-.21.043-.42.086-.614.102.023.165.034.335.045.506.025.376.05.752.196 1.07.22.479.47.943.73 1.426ZM336.834 521.186a57.66 57.66 0 0 1-.785 2.96c-.145-.25-.286-.504-.426-.758-.313-.566-.627-1.132-.995-1.658a88.012 88.012 0 0 0-.266-.382c-.747-1.074-1.5-2.157-2.397-3.092l-.024-.025c-.67-.698-.766-.797.106-1.316 1.654-.985 2.681.031 3.499 1.226.465.679.745 1.488 1.057 2.386v.001c.074.214.15.434.231.658ZM377.441 429.752l.049-.339a307.47 307.47 0 0 0-.198-3.369v-.002c-1.267.249-1.39 1.134-1.528 2.274-.137 1.137-.382 2.26-.627 3.383a46.574 46.574 0 0 0-.527 2.658c-.042.265.611.782 1.029.927.25.086.919-.273.972-.523.336-1.599.57-3.218.83-5.009ZM363.344 199.665a6.15 6.15 0 0 0-.381-.302c-.203-.152-.374-.28-.489-.448a9.744 9.744 0 0 1-.611-1.073c-.079-.153-.158-.307-.241-.458.176-.016.374-.058.572-.1.429-.091.859-.183 1.062-.007 1.557 1.344 3.05 2.779 4.416 4.317.175.197.032.682-.112 1.166-.066.224-.132.447-.167.643-.122-.088-.249-.171-.376-.255-.278-.183-.556-.366-.792-.593a95.41 95.41 0 0 1-2.015-2.012l-.866-.878ZM359.287 202.499c-.248.338-.503.686-.763.972-.046.214-.109.436-.173.659-.288 1.008-.581 2.035.752 2.342 1.744.403 2.135-1.151 2.458-2.497a.293.293 0 0 0 0-.098.251.251 0 0 1 .005-.11c.423-1.135.458-2.456-.866-2.585-.415-.04-.897.616-1.413 1.317ZM385.872 220.211c-.349-.47-.698-.939-1.257-1.409-.699.621-1.187 1.242-1.676 1.863.12.07.248.166.376.262.282.211.564.422.76.359.46-.147.874-.438 1.289-.729.168-.119.337-.237.508-.346Z"/></svg>